<svg width="72" height="72" viewBox="0 0 72 72" fill="none" xmlns="http://www.w3.org/2000/svg">
<circle cx="36" cy="36" r="36" fill="white"/>
<path d="M72 36C72 55.8823 55.8823 72 36 72C16.1177 72 0 55.8823 0 36C0 16.1177 16.1177 0 36 0C55.8823 0 72 16.1177 72 36ZM4.032 36C4.032 53.6554 18.3446 67.968 36 67.968C53.6554 67.968 67.968 53.6554 67.968 36C67.968 18.3446 53.6554 4.032 36 4.032C18.3446 4.032 4.032 18.3446 4.032 36Z" fill="#C74634"/>
<path fill-rule="evenodd" clip-rule="evenodd" d="M71.382 42.6772C71.5043 42.0248 71.6091 41.3662 71.6957 40.7019C71.8965 39.163 72 37.5936 72 36C72 34.4064 71.8965 32.837 71.6957 31.2981C71.6091 30.6338 71.5043 29.9752 71.382 29.3228C71.2584 28.6642 71.117 28.012 70.9581 27.3665C68.8853 27.7535 67.4532 29.699 67.7293 31.8154C67.9077 33.1832 68 34.5798 68 36C68 37.4202 67.9077 38.8168 67.7293 40.1846C67.4532 42.301 68.8853 44.2465 70.9581 44.6335C71.117 43.988 71.2584 43.3358 71.382 42.6772ZM66.8203 54.6143C65.0803 53.4222 62.6915 53.7862 61.3907 55.4789C59.6861 57.6972 57.6972 59.6861 55.4789 61.3907C53.7862 62.6915 53.4222 65.0803 54.6143 66.8203C55.1859 66.4743 55.7471 66.113 56.2973 65.7367C56.8481 65.36 57.388 64.9683 57.9162 64.5624C60.4101 62.6459 62.6459 60.4101 64.5624 57.9162C64.9683 57.388 65.36 56.8481 65.7367 56.2973C66.113 55.7471 66.4743 55.1859 66.8203 54.6143ZM44.6334 70.9581C44.2465 68.8853 42.301 67.4532 40.1846 67.7293C38.8168 67.9077 37.4202 68 36 68C34.5798 68 33.1832 67.9077 31.8154 67.7293C29.699 67.4532 27.7535 68.8853 27.3665 70.9581C28.012 71.117 28.6642 71.2584 29.3228 71.382C29.9752 71.5043 30.6338 71.6091 31.2981 71.6957C32.8369 71.8965 34.4064 72 36 72C37.5936 72 39.163 71.8965 40.7019 71.6957C41.3662 71.6091 42.0248 71.5043 42.6772 71.382C43.3358 71.2584 43.988 71.117 44.6334 70.9581ZM17.3857 66.8203C18.5778 65.0803 18.2138 62.6915 16.5211 61.3907C14.3028 59.6861 12.3139 57.6972 10.6093 55.4789C9.30852 53.7862 6.91971 53.4222 5.1797 54.6143C5.52565 55.1859 5.88705 55.7471 6.26332 56.2973C6.64004 56.8481 7.03167 57.388 7.43762 57.9162C9.35409 60.4101 11.5899 62.6459 14.0838 64.5624C14.612 64.9683 15.1519 65.36 15.7027 65.7367C16.2529 66.113 16.8141 66.4743 17.3857 66.8203ZM1.04188 44.6334C3.1147 44.2465 4.54675 42.301 4.27068 40.1846C4.09227 38.8168 4 37.4202 4 36C4 34.5798 4.09227 33.1832 4.27068 31.8154C4.54675 29.699 3.1147 27.7535 1.04188 27.3665C0.883018 28.012 0.741566 28.6642 0.618047 29.3228C0.495691 29.9752 0.390932 30.6338 0.304283 31.2981C0.103548 32.8369 0 34.4064 0 36C0 37.5936 0.103548 39.163 0.304282 40.7019C0.390932 41.3662 0.495691 42.0248 0.618047 42.6772C0.741566 43.3358 0.883018 43.988 1.04188 44.6334ZM5.1797 17.3857C6.91971 18.5778 9.30852 18.2138 10.6093 16.5211C12.3139 14.3028 14.3028 12.3139 16.5211 10.6093C18.2138 9.30852 18.5778 6.91971 17.3857 5.1797C16.8141 5.52565 16.2529 5.88705 15.7027 6.26332C15.1519 6.64004 14.612 7.03167 14.0838 7.43762C11.5899 9.35409 9.35409 11.5899 7.43762 14.0838C7.03167 14.612 6.64004 15.1519 6.26332 15.7027C5.88705 16.2529 5.52565 16.8141 5.1797 17.3857ZM27.3665 1.04188C27.7535 3.1147 29.699 4.54675 31.8154 4.27068C33.1832 4.09227 34.5798 4 36 4C37.4202 4 38.8168 4.09227 40.1846 4.27068C42.301 4.54675 44.2465 3.1147 44.6335 1.04188C43.988 0.883019 43.3358 0.741566 42.6772 0.618047C42.0248 0.495691 41.3662 0.390932 40.7019 0.304282C39.163 0.103548 37.5936 0 36 0C34.4064 0 32.837 0.103548 31.2981 0.304282C30.6338 0.390931 29.9752 0.495691 29.3228 0.618046C28.6642 0.741566 28.012 0.883018 27.3665 1.04188ZM54.6143 5.1797C53.4222 6.91971 53.7862 9.30852 55.4789 10.6093C57.6972 12.3139 59.6861 14.3028 61.3907 16.5211C62.6915 18.2138 65.0803 18.5778 66.8203 17.3857C66.4743 16.8141 66.113 16.2529 65.7367 15.7027C65.36 15.1519 64.9683 14.612 64.5624 14.0838C62.6459 11.5899 60.4101 9.35409 57.9162 7.43762C57.388 7.03167 56.8481 6.64004 56.2973 6.26332C55.7471 5.88705 55.1859 5.52565 54.6143 5.1797Z" fill="#C74634"/>
<path d="M47.9716 21C46.1291 21 44.6307 22.4678 44.6307 24.2727C44.6307 24.8373 44.7771 25.3685 45.0349 25.8327L39.562 31.194C38.8075 30.6185 37.8631 30.2727 36.8352 30.2727C35.8073 30.2727 34.863 30.6185 34.1079 31.1935L29.8377 27.0104C30.0337 26.6858 30.1534 26.3127 30.1534 25.9091C30.1534 24.7058 29.1545 23.7273 27.9261 23.7273C26.6978 23.7273 25.6989 24.7058 25.6989 25.9091C25.6989 27.1124 26.6978 28.0909 27.9261 28.0909C28.3382 28.0909 28.719 27.9736 29.0504 27.7816L33.3206 31.9647C32.7337 32.7044 32.3807 33.6295 32.3807 34.6364C32.3807 35.6433 32.7337 36.5684 33.3206 37.3075L26.269 44.2156C25.6755 43.6882 24.8909 43.3636 24.0284 43.3636C22.1859 43.3636 20.6875 44.8315 20.6875 46.6364C20.6875 48.4413 22.1859 49.9091 24.0284 49.9091C25.8709 49.9091 27.3693 48.4413 27.3693 46.6364C27.3693 46.0718 27.2229 45.5405 26.9651 45.0764L34.1085 38.0787C34.7243 38.5478 35.4671 38.862 36.279 38.9618V44.5036C34.7015 44.7644 33.4949 46.1084 33.4949 47.7273C33.4949 49.5322 34.9933 51 36.8358 51C38.6783 51 40.1767 49.5322 40.1767 47.7273C40.1767 46.1089 38.9701 44.7649 37.3926 44.5036V38.9618C38.2044 38.862 38.9472 38.5478 39.5631 38.0787L43.8333 42.2618C43.6368 42.5869 43.517 42.96 43.517 43.3636C43.517 44.5669 44.516 45.5455 45.7443 45.5455C46.9727 45.5455 47.9716 44.5669 47.9716 43.3636C47.9716 42.1604 46.9727 41.1818 45.7443 41.1818C45.3323 41.1818 44.9514 41.2991 44.6201 41.4911L40.3499 37.308C40.9368 36.5684 41.2898 35.6433 41.2898 34.6364C41.2898 33.6295 40.9368 32.7044 40.3499 31.9653L45.7315 26.6935C46.3245 27.2209 47.1091 27.5455 47.9716 27.5455C49.8141 27.5455 51.3125 26.0776 51.3125 24.2727C51.3125 22.4678 49.8141 21 47.9716 21ZM26.8125 25.9091C26.8125 25.3075 27.312 24.8182 27.9261 24.8182C28.5403 24.8182 29.0398 25.3075 29.0398 25.9091C29.0398 26.5107 28.5403 27 27.9261 27C27.312 27 26.8125 26.5107 26.8125 25.9091ZM24.0284 48.8182C22.8001 48.8182 21.8011 47.8396 21.8011 46.6364C21.8011 45.4331 22.8001 44.4545 24.0284 44.4545C25.2568 44.4545 26.2557 45.4331 26.2557 46.6364C26.2557 47.8396 25.2568 48.8182 24.0284 48.8182ZM39.0625 47.7273C39.0625 48.9305 38.0636 49.9091 36.8352 49.9091C35.6069 49.9091 34.608 48.9305 34.608 47.7273C34.608 46.524 35.6069 45.5455 36.8352 45.5455C38.0636 45.5455 39.0625 46.524 39.0625 47.7273ZM36.8352 37.9091C34.9927 37.9091 33.4943 36.4413 33.4943 34.6364C33.4943 32.8315 34.9927 31.3636 36.8352 31.3636C38.6777 31.3636 40.1761 32.8315 40.1761 34.6364C40.1761 36.4413 38.6777 37.9091 36.8352 37.9091ZM46.858 43.3636C46.858 43.9653 46.3585 44.4545 45.7443 44.4545C45.1301 44.4545 44.6307 43.9653 44.6307 43.3636C44.6307 42.762 45.1301 42.2727 45.7443 42.2727C46.3585 42.2727 46.858 42.762 46.858 43.3636ZM47.9716 26.4545C46.7432 26.4545 45.7443 25.476 45.7443 24.2727C45.7443 23.0695 46.7432 22.0909 47.9716 22.0909C49.1999 22.0909 50.1989 23.0695 50.1989 24.2727C50.1989 25.476 49.1999 26.4545 47.9716 26.4545Z" fill="#C74634"/>
</svg>
