<svg width="256" height="256" viewBox="0 0 256 256" fill="none" xmlns="http://www.w3.org/2000/svg">
<path d="M164 121.672V187.834H147.999H131.999V189.781V191.727H162H192.001V183.944V176.161H180.001H168.001V121.672V67.186H195.999H224V121.672V176.159H212H200V187.834V199.51H128H56V187.834V176.159H44H32V121.672V67.186H60.0007H87.9993V121.672V176.159H75.9993H63.9993V183.942V191.725H94.0003H123.999V189.779V187.833H107.999H91.998V121.672V55.5102H128H164V121.672ZM108.001 71.0785V74.9711H114.002H120.003V71.0785V67.186H114.002H108.001V71.0785ZM183.999 82.7543V86.6469H188.5H193V82.7543V78.8618H188.5H183.999V82.7543ZM48.0007 82.7543V86.6469H52.5009H56.9992V82.7543V78.8618H52.4989H47.9987V82.7543H48.0007ZM108.001 109.754V113.889H128H147.999V109.754V105.62H128H108.001V109.754ZM183.999 109.997V113.889H195.999H207.999V109.997V106.104H195.999H183.999V109.997ZM48.0007 109.997V113.889H60.0007H72.0007V109.997V106.104H60.0007H48.0007V109.997ZM183.999 121.672V125.565H195.999H207.999V121.672V117.78H195.999H183.999V121.672ZM108.001 121.672V125.565H128H147.999V121.672V117.78H128H108.001V121.672ZM48.0007 121.672V125.565H60.0007H72.0007V121.672V117.78H60.0007H48.0007V121.672ZM183.999 133.35V137.243H195.999H207.999V133.35V129.457H195.999H183.999V133.35ZM108.001 133.35V137.243H128H147.999V133.35V129.457H128H108.001V133.35ZM48.0007 133.35V137.243H60.0007H72.0007V133.35V129.457H60.0007H48.0007V133.35ZM183.999 145.026V148.918H195.999H207.999V145.026V141.133H195.999H183.999V145.026ZM108.001 145.026V148.918H128H147.999V145.026V141.133H128H108.001V145.026ZM48.0007 145.026V148.918H60.0007H72.0007V145.026V141.133H60.0007H48.0007V145.026ZM183.999 156.7V160.592H195.999H207.999V156.7V152.807H195.999H183.999V156.7ZM108.001 156.7V160.592H128H147.999V156.7V152.807H128H108.001V156.7ZM48.0007 156.7V160.592H60.0007H72.0007V156.7V152.807H60.0007H48.0007V156.7ZM108.001 168.375V172.268H128H147.999V168.375V164.483H128H108.001V168.375Z" fill="#625F68"/>
</svg>
