<svg width="256" height="256" viewBox="0 0 256 256" fill="none" xmlns="http://www.w3.org/2000/svg">
<g clip-path="url(#clip0_4_9070)">
<path d="M128 224C181.016 224 224 181.016 224 128C224 74.984 181.016 32 128 32C74.984 32 32 74.984 32 128C32 181.016 74.984 224 128 224ZM71.832 158.712L94.856 135.688V101.68L117.888 78.648V49.376L127.976 41.936L138.064 49.376V78.656L161.096 101.688L161.08 135.616L184.176 158.712V192.408L174.088 199.848L164.008 192.408V167.072L151.064 154.136L138.112 167.072V192.408L128.008 199.848L117.904 192.408V167.072L104.952 154.136L92.016 167.072V192.408L81.92 199.848L71.832 192.408V158.712Z" fill="#E20E00"/>
<path d="M140.904 135.744V110.04L127.96 97.096L115.016 110.04V135.664L128 148.648L140.904 135.744Z" fill="#E20E00"/>
</g>
<defs>
<clipPath id="clip0_4_9070">
<rect width="96" height="96" fill="white" transform="matrix(2 0 0 2 32 32)"/>
</clipPath>
</defs>
</svg>
