<svg width="256" height="256" viewBox="0 0 256 256" fill="none" xmlns="http://www.w3.org/2000/svg">
<path d="M99.6923 183C91.479 183 84.4615 180.112 78.64 174.337C72.8185 168.562 69.9077 161.504 69.9077 153.162C69.9077 146.012 72.0287 139.642 76.2708 134.05C80.5128 128.458 86.0636 124.883 92.9231 123.325C95.1795 114.892 99.6923 108.062 106.462 102.838C113.231 97.6125 120.903 95 129.477 95C140.037 95 148.995 98.7354 156.351 106.206C163.707 113.677 167.385 122.775 167.385 133.5C173.612 134.233 178.78 136.96 182.886 141.681C186.993 146.402 189.046 151.925 189.046 158.25C189.046 165.125 186.677 170.969 181.938 175.781C177.2 180.594 171.446 183 164.677 183H99.6923ZM99.6923 172H164.677C168.468 172 171.672 170.671 174.289 168.013C175.552 166.73 176.51 165.309 177.163 163.75C177.865 162.076 178.215 160.243 178.215 158.25C178.215 157.542 178.171 156.855 178.083 156.187C177.69 153.224 176.426 150.657 174.289 148.487C171.672 145.829 168.468 144.5 164.677 144.5H156.554V133.5C156.554 132.287 156.487 131.102 156.352 129.945C156.033 127.194 155.333 124.604 154.253 122.176C152.941 119.227 151.068 116.516 148.634 114.044C143.354 108.681 136.968 106 129.477 106C129.363 106 129.25 106.001 129.137 106.002C125.291 106.044 121.738 106.799 118.48 108.267C115.517 109.603 112.797 111.528 110.32 114.044C105.04 119.406 102.4 125.892 102.4 133.5H99.6923C94.4574 133.5 89.9897 135.379 86.2892 139.137C83.2437 142.231 81.4514 145.851 80.9124 150C80.7964 150.892 80.7385 151.809 80.7385 152.75C80.7385 155.748 81.3267 158.498 82.5031 161C83.4131 162.936 84.6752 164.723 86.2892 166.362C89.9897 170.121 94.4574 172 99.6923 172Z" fill="white"/>
<path fill-rule="evenodd" clip-rule="evenodd" d="M177.163 163.75H206.277C211.2 163.75 215.385 162.096 218.831 158.787C222.277 155.479 224 151.461 224 146.734C224 142.386 222.507 138.589 219.52 135.343C216.533 132.098 212.775 130.223 208.246 129.719C208.246 122.345 205.571 116.09 200.222 110.954C194.872 105.818 188.357 103.25 180.677 103.25C174.441 103.25 168.862 105.046 163.938 108.638C159.171 112.117 155.943 116.629 154.253 122.176C155.333 124.604 156.033 127.194 156.352 129.945C157.207 129.794 158.095 129.719 159.015 129.719H160.985C160.985 124.488 162.905 120.029 166.745 116.343C170.585 112.656 175.229 110.812 180.677 110.812C186.125 110.812 190.769 112.656 194.609 116.343C198.449 120.029 200.369 124.488 200.369 129.719V137.281H206.277C209.034 137.281 211.364 138.195 213.268 140.023C215.171 141.85 216.123 144.087 216.123 146.734C216.123 149.381 215.171 151.618 213.268 153.446C211.364 155.274 209.034 156.187 206.277 156.187H178.083C178.171 156.855 178.215 157.542 178.215 158.25C178.215 160.243 177.865 162.076 177.163 163.75Z" fill="#00A4EF"/>
<path fill-rule="evenodd" clip-rule="evenodd" d="M61.7846 161C53.5713 161 46.5538 158.113 40.7323 152.338C34.9108 146.562 32 139.504 32 131.162C32 124.013 34.121 117.642 38.3631 112.05C42.6051 106.458 48.1559 102.883 55.0154 101.325C57.2718 92.8917 61.7846 86.0625 68.5538 80.8375C75.3231 75.6125 82.9949 73 91.5692 73C102.129 73 111.087 76.7354 118.443 84.2063C124.508 90.3655 128.072 97.6307 129.137 106.002C125.291 106.044 121.738 106.799 118.48 108.267C117.827 102.038 115.242 96.6302 110.726 92.0438C105.446 86.6813 99.0605 84 91.5692 84C84.0779 84 77.6923 86.6813 72.4123 92.0438C67.1323 97.4062 64.4923 103.892 64.4923 111.5H61.7846C56.5497 111.5 52.0821 113.379 48.3815 117.138C44.681 120.896 42.8308 125.433 42.8308 130.75C42.8308 136.067 44.681 140.604 48.3815 144.362C52.0821 148.121 56.5497 150 61.7846 150H80.9124C80.7964 150.892 80.7385 151.809 80.7385 152.75C80.7385 155.748 81.3267 158.498 82.5031 161H61.7846Z" fill="#00A4EF"/>
<path d="M99.6923 183C91.479 183 84.4615 180.112 78.64 174.337C72.8185 168.562 69.9077 161.504 69.9077 153.162C69.9077 146.012 72.0287 139.642 76.2708 134.05C80.5128 128.458 86.0636 124.883 92.9231 123.325C95.1795 114.892 99.6923 108.062 106.462 102.838C113.231 97.6125 120.903 95 129.477 95C140.037 95 148.995 98.7354 156.351 106.206C163.707 113.677 167.385 122.775 167.385 133.5C173.612 134.233 178.78 136.96 182.886 141.681C186.993 146.402 189.046 151.925 189.046 158.25C189.046 165.125 186.677 170.969 181.938 175.781C177.2 180.594 171.446 183 164.677 183H99.6923ZM99.6923 172H164.677C168.468 172 171.672 170.671 174.289 168.013C175.552 166.73 176.51 165.309 177.163 163.75C177.865 162.076 178.215 160.243 178.215 158.25C178.215 157.542 178.171 156.855 178.083 156.187C177.69 153.224 176.426 150.657 174.289 148.487C171.672 145.829 168.468 144.5 164.677 144.5H156.554V133.5C156.554 132.287 156.487 131.102 156.352 129.945C156.033 127.194 155.333 124.604 154.253 122.176C152.941 119.227 151.068 116.516 148.634 114.044C143.354 108.681 136.968 106 129.477 106C129.363 106 129.25 106.001 129.137 106.002C125.291 106.044 121.738 106.799 118.48 108.267C115.517 109.603 112.797 111.528 110.32 114.044C105.04 119.406 102.4 125.892 102.4 133.5H99.6923C94.4574 133.5 89.9897 135.379 86.2892 139.137C83.2437 142.231 81.4514 145.851 80.9124 150C80.7964 150.892 80.7385 151.809 80.7385 152.75C80.7385 155.748 81.3267 158.498 82.5031 161C83.4131 162.936 84.6752 164.723 86.2892 166.362C89.9897 170.121 94.4574 172 99.6923 172Z" fill="#FF9900"/>
</svg>
