<svg width="72" height="72" viewBox="0 0 72 72" fill="none" xmlns="http://www.w3.org/2000/svg">
<circle cx="36" cy="36" r="36" fill="white"/>
<path d="M72 36C72 55.8823 55.8823 72 36 72C16.1177 72 0 55.8823 0 36C0 16.1177 16.1177 0 36 0C55.8823 0 72 16.1177 72 36ZM4.032 36C4.032 53.6554 18.3446 67.968 36 67.968C53.6554 67.968 67.968 53.6554 67.968 36C67.968 18.3446 53.6554 4.032 36 4.032C18.3446 4.032 4.032 18.3446 4.032 36Z" fill="#4E436F"/>
<path fill-rule="evenodd" clip-rule="evenodd" d="M71.382 42.6772C71.5043 42.0248 71.6091 41.3662 71.6957 40.7019C71.8965 39.163 72 37.5936 72 36C72 34.4064 71.8965 32.837 71.6957 31.2981C71.6091 30.6338 71.5043 29.9752 71.382 29.3228C71.2584 28.6642 71.117 28.012 70.9581 27.3665C68.8853 27.7535 67.4532 29.699 67.7293 31.8154C67.9077 33.1832 68 34.5798 68 36C68 37.4202 67.9077 38.8168 67.7293 40.1846C67.4532 42.301 68.8853 44.2465 70.9581 44.6335C71.117 43.988 71.2584 43.3358 71.382 42.6772ZM66.8203 54.6143C65.0803 53.4222 62.6915 53.7862 61.3907 55.4789C59.6861 57.6972 57.6972 59.6861 55.4789 61.3907C53.7862 62.6915 53.4222 65.0803 54.6143 66.8203C55.1859 66.4743 55.7471 66.113 56.2973 65.7367C56.8481 65.36 57.388 64.9683 57.9162 64.5624C60.4101 62.6459 62.6459 60.4101 64.5624 57.9162C64.9683 57.388 65.36 56.8481 65.7367 56.2973C66.113 55.7471 66.4743 55.1859 66.8203 54.6143ZM44.6334 70.9581C44.2465 68.8853 42.301 67.4532 40.1846 67.7293C38.8168 67.9077 37.4202 68 36 68C34.5798 68 33.1832 67.9077 31.8154 67.7293C29.699 67.4532 27.7535 68.8853 27.3665 70.9581C28.012 71.117 28.6642 71.2584 29.3228 71.382C29.9752 71.5043 30.6338 71.6091 31.2981 71.6957C32.8369 71.8965 34.4064 72 36 72C37.5936 72 39.163 71.8965 40.7019 71.6957C41.3662 71.6091 42.0248 71.5043 42.6772 71.382C43.3358 71.2584 43.988 71.117 44.6334 70.9581ZM17.3857 66.8203C18.5778 65.0803 18.2138 62.6915 16.5211 61.3907C14.3028 59.6861 12.3139 57.6972 10.6093 55.4789C9.30852 53.7862 6.91971 53.4222 5.1797 54.6143C5.52565 55.1859 5.88705 55.7471 6.26332 56.2973C6.64004 56.8481 7.03167 57.388 7.43762 57.9162C9.35409 60.4101 11.5899 62.6459 14.0838 64.5624C14.612 64.9683 15.1519 65.36 15.7027 65.7367C16.2529 66.113 16.8141 66.4743 17.3857 66.8203ZM1.04188 44.6334C3.1147 44.2465 4.54675 42.301 4.27068 40.1846C4.09227 38.8168 4 37.4202 4 36C4 34.5798 4.09227 33.1832 4.27068 31.8154C4.54675 29.699 3.1147 27.7535 1.04188 27.3665C0.883018 28.012 0.741566 28.6642 0.618047 29.3228C0.495691 29.9752 0.390932 30.6338 0.304283 31.2981C0.103548 32.8369 0 34.4064 0 36C0 37.5936 0.103548 39.163 0.304282 40.7019C0.390932 41.3662 0.495691 42.0248 0.618047 42.6772C0.741566 43.3358 0.883018 43.988 1.04188 44.6334ZM5.1797 17.3857C6.91971 18.5778 9.30852 18.2138 10.6093 16.5211C12.3139 14.3028 14.3028 12.3139 16.5211 10.6093C18.2138 9.30852 18.5778 6.91971 17.3857 5.1797C16.8141 5.52565 16.2529 5.88705 15.7027 6.26332C15.1519 6.64004 14.612 7.03167 14.0838 7.43762C11.5899 9.35409 9.35409 11.5899 7.43762 14.0838C7.03167 14.612 6.64004 15.1519 6.26332 15.7027C5.88705 16.2529 5.52565 16.8141 5.1797 17.3857ZM27.3665 1.04188C27.7535 3.1147 29.699 4.54675 31.8154 4.27068C33.1832 4.09227 34.5798 4 36 4C37.4202 4 38.8168 4.09227 40.1846 4.27068C42.301 4.54675 44.2465 3.1147 44.6335 1.04188C43.988 0.883019 43.3358 0.741566 42.6772 0.618047C42.0248 0.495691 41.3662 0.390932 40.7019 0.304282C39.163 0.103548 37.5936 0 36 0C34.4064 0 32.837 0.103548 31.2981 0.304282C30.6338 0.390931 29.9752 0.495691 29.3228 0.618046C28.6642 0.741566 28.012 0.883018 27.3665 1.04188ZM54.6143 5.1797C53.4222 6.91971 53.7862 9.30852 55.4789 10.6093C57.6972 12.3139 59.6861 14.3028 61.3907 16.5211C62.6915 18.2138 65.0803 18.5778 66.8203 17.3857C66.4743 16.8141 66.113 16.2529 65.7367 15.7027C65.36 15.1519 64.9683 14.612 64.5624 14.0838C62.6459 11.5899 60.4101 9.35409 57.9162 7.43762C57.388 7.03167 56.8481 6.64004 56.2973 6.26332C55.7471 5.88705 55.1859 5.52565 54.6143 5.1797Z" fill="#4E436F"/>
<path fill-rule="evenodd" clip-rule="evenodd" d="M28.8723 39.9406C27.1681 39.8889 25.7043 39.2685 24.4809 38.0793C23.202 36.8361 22.5625 35.3166 22.5625 33.5209C22.5625 31.9817 23.0285 30.6102 23.9604 29.4065C24.8924 28.2027 26.1118 27.4331 27.6188 27.0976C28.1145 25.2822 29.106 23.812 30.5931 22.6872C32.0803 21.5624 33.7657 21 35.6494 21C37.9694 21 39.9374 21.8041 41.5534 23.4124C43.1695 25.0207 43.9775 26.9792 43.9775 29.2881C45.3457 29.4459 46.4809 30.033 47.3831 31.0493C48.2853 32.0655 48.7364 33.2545 48.7364 34.6161C48.7364 36.0961 48.2159 37.3541 47.1749 38.3901C46.1339 39.4261 44.8698 39.9441 43.3826 39.9441H42.7772V43.5581H46.3232C46.5857 43.0082 47.1491 42.6279 47.8016 42.6279C48.7051 42.6279 49.4375 43.3567 49.4375 44.2558C49.4375 45.1549 48.7051 45.8837 47.8016 45.8837C47.0606 45.8837 46.4346 45.3934 46.2335 44.7209H42.1929C41.8703 44.7209 41.6087 44.4606 41.6087 44.1395V39.9441H38.5707V47.8511C39.1856 48.0851 39.6223 48.6779 39.6223 49.3721C39.6223 50.2712 38.8899 51 37.9864 51C37.083 51 36.3505 50.2712 36.3505 49.3721C36.3505 48.6779 36.7872 48.0851 37.4022 47.8511V39.9441H34.1304V49.1395C34.1304 49.4606 33.8689 49.7209 33.5462 49.7209H27.129C26.8938 50.3329 26.2982 50.7674 25.6006 50.7674C24.6971 50.7674 23.9647 50.0386 23.9647 49.1395C23.9647 48.2405 24.6971 47.5116 25.6006 47.5116C26.2982 47.5116 26.8938 47.9462 27.129 48.5581H32.962V39.9441H30.0408V42.7442C30.0408 43.0653 29.7792 43.3256 29.4565 43.3256H26.0694C25.8353 43.9396 25.2386 44.376 24.5395 44.376C23.636 44.376 22.9036 43.6472 22.9036 42.7481C22.9036 41.8491 23.636 41.1202 24.5395 41.1202C25.2371 41.1202 25.8327 41.5548 26.0679 42.1667L28.8723 42.1628V39.9406ZM45.4944 36.7177C44.9194 37.29 44.2154 37.5761 43.3826 37.5761H29.106C27.9559 37.5761 26.9744 37.1716 26.1614 36.3625C25.8068 36.0096 25.5296 35.6248 25.3296 35.2081C25.0712 34.6694 24.9419 34.0774 24.9419 33.4321C24.9419 33.2295 24.9547 33.0322 24.9802 32.8401C25.0986 31.947 25.4923 31.1675 26.1614 30.5017C26.9744 29.6926 27.9559 29.2881 29.106 29.2881H29.7008C29.7008 27.6502 30.2808 26.254 31.4408 25.0996C31.9849 24.5581 32.5825 24.1436 33.2336 23.8561C33.9493 23.54 34.7297 23.3774 35.5747 23.3684C35.5996 23.3681 35.6245 23.368 35.6494 23.368C37.2952 23.368 38.6981 23.9452 39.8581 25.0996C40.3929 25.6318 40.8044 26.2154 41.0926 26.8504C41.3298 27.373 41.4836 27.9305 41.5538 28.5228C41.5833 28.7717 41.5981 29.0268 41.5981 29.2881V31.6561H43.3826C44.2154 31.6561 44.9194 31.9422 45.4944 32.5145C45.9637 32.9816 46.2415 33.5341 46.3278 34.1721C46.3472 34.3158 46.3569 34.4638 46.3569 34.6161C46.3569 35.0451 46.2799 35.4398 46.1258 35.8001C45.9822 36.1358 45.7718 36.4417 45.4944 36.7177Z" fill="#4E436F"/>
</svg>
