<svg width="256" height="256" viewBox="0 0 256 256" fill="none" xmlns="http://www.w3.org/2000/svg">
<path d="M171.191 92.0225V115.152H193.885C195.566 111.632 199.171 109.199 203.347 109.199C209.13 109.199 213.817 113.863 213.817 119.617C213.817 125.371 209.13 130.036 203.347 130.036C198.605 130.036 194.598 126.898 193.311 122.594H167.452C165.387 122.594 163.713 120.928 163.713 118.873V92.0225H144.269V142.627C148.205 144.125 151 147.918 151 152.361C151 158.116 146.312 162.78 140.53 162.78C134.748 162.78 130.06 158.116 130.06 152.361C130.06 147.918 132.855 144.125 136.791 142.627V92.0225H115.852V150.873C115.852 152.928 114.178 154.594 112.113 154.594H71.0426C69.5373 158.511 65.7253 161.292 61.2605 161.292C55.4783 161.292 50.7909 156.627 50.7909 150.873C50.7909 145.119 55.4783 140.455 61.2605 140.455C65.7253 140.455 69.5373 143.236 71.0426 147.152H108.373V92.0225H89.6778V109.943C89.6778 111.998 88.0038 113.664 85.9387 113.664H64.2613C62.7628 117.594 58.9439 120.387 54.4696 120.387C48.6874 120.387 44 115.722 44 109.968C44 104.214 48.6874 99.5495 54.4696 99.5495C58.9344 99.5495 62.7464 102.331 64.2517 106.247L82.1996 106.222V92L89.6778 92.0225H108.373H115.852H136.791H144.269H163.713H171.191Z" fill="#4E436F"/>
</svg>
