<svg width="256" height="256" viewBox="0 0 256 256" fill="none" xmlns="http://www.w3.org/2000/svg">
<path fill-rule="evenodd" clip-rule="evenodd" d="M82.3827 153.22C71.4759 152.889 62.1076 148.918 54.2779 141.308C46.0926 133.351 42 123.626 42 112.134C42 102.283 44.9822 93.5053 50.9467 85.8013C56.9112 78.0974 64.7158 73.1719 74.3605 71.0249C77.533 59.4058 83.8782 49.9969 93.396 42.7982C102.914 35.5994 113.701 32 125.756 32C140.604 32 153.199 37.1465 163.542 47.4395C173.885 57.7324 179.056 70.2671 179.056 85.0436C187.812 86.0539 195.078 89.8112 200.852 96.3153C206.626 102.819 209.513 110.429 209.513 119.143C209.513 128.615 206.182 136.666 199.519 143.297C192.857 149.927 184.767 153.242 175.249 153.242H171.374V176.372H194.068C195.749 172.852 199.354 170.419 203.53 170.419C209.313 170.419 214 175.083 214 180.837C214 186.591 209.313 191.256 203.53 191.256C198.788 191.256 194.782 188.118 193.494 183.814H167.635C165.57 183.814 163.896 182.148 163.896 180.093V153.242H144.452V203.847C148.388 205.345 151.183 209.138 151.183 213.581C151.183 219.335 146.495 224 140.713 224C134.931 224 130.244 219.335 130.244 213.581C130.244 209.138 133.038 205.345 136.974 203.847V153.242H116.035V212.093C116.035 214.148 114.361 215.814 112.296 215.814H71.2257C69.7204 219.73 65.9084 222.512 61.4436 222.512C55.6614 222.512 50.974 217.847 50.974 212.093C50.974 206.339 55.6614 201.674 61.4436 201.674C65.9084 201.674 69.7204 204.456 71.2257 208.372H108.557V153.242H89.8609V171.163C89.8609 173.218 88.1869 174.884 86.1218 174.884H64.4444C62.9459 178.813 59.127 181.607 54.6527 181.607C48.8705 181.607 44.1831 176.942 44.1831 171.188C44.1831 165.434 48.8705 160.769 54.6527 160.769C59.1175 160.769 62.9295 163.551 64.4348 167.467L82.3827 167.442V153.22ZM188.764 132.593C185.084 136.256 180.579 138.087 175.249 138.087H83.8782C76.5178 138.087 70.2361 135.498 65.033 130.32C62.7636 128.062 60.9891 125.599 59.7096 122.932C58.0555 119.484 57.2284 115.695 57.2284 111.565C57.2284 110.269 57.31 109.006 57.473 107.777C58.2309 102.061 60.7509 97.0722 65.033 92.8106C70.2361 87.6326 76.5178 85.0436 83.8782 85.0436H87.6853C87.6853 74.5611 91.3973 65.6258 98.8211 58.2376C102.304 54.7719 106.128 52.119 110.295 50.279C114.876 48.256 119.87 47.2156 125.278 47.1578C125.437 47.1561 125.597 47.1553 125.756 47.1553C136.289 47.1553 145.268 50.8494 152.692 58.2376C156.114 61.6437 158.748 65.3786 160.593 69.4423C162.111 72.7873 163.095 76.3552 163.544 80.1459C163.733 81.7391 163.828 83.3717 163.828 85.0436V100.199H175.249C180.579 100.199 185.084 102.03 188.764 105.693C191.768 108.682 193.546 112.218 194.098 116.301C194.222 117.221 194.284 118.168 194.284 119.143C194.284 121.889 193.791 124.415 192.805 126.721C191.886 128.869 190.539 130.827 188.764 132.593Z" fill="#4E436F"/>
</svg>
