<svg width="72" height="72" viewBox="0 0 72 72" fill="none" xmlns="http://www.w3.org/2000/svg">
<circle cx="36" cy="36" r="36" fill="white"/>
<path d="M72 36C72 55.8823 55.8823 72 36 72C16.1177 72 0 55.8823 0 36C0 16.1177 16.1177 0 36 0C55.8823 0 72 16.1177 72 36ZM4.032 36C4.032 53.6554 18.3446 67.968 36 67.968C53.6554 67.968 67.968 53.6554 67.968 36C67.968 18.3446 53.6554 4.032 36 4.032C18.3446 4.032 4.032 18.3446 4.032 36Z" fill="#4285F4"/>
<path fill-rule="evenodd" clip-rule="evenodd" d="M71.382 42.6772C71.5043 42.0248 71.6091 41.3662 71.6957 40.7019C71.8965 39.163 72 37.5936 72 36C72 34.4064 71.8965 32.837 71.6957 31.2981C71.6091 30.6338 71.5043 29.9752 71.382 29.3228C71.2584 28.6642 71.117 28.012 70.9581 27.3665C68.8853 27.7535 67.4532 29.699 67.7293 31.8154C67.9077 33.1832 68 34.5798 68 36C68 37.4202 67.9077 38.8168 67.7293 40.1846C67.4532 42.301 68.8853 44.2465 70.9581 44.6335C71.117 43.988 71.2584 43.3358 71.382 42.6772ZM66.8203 54.6143C65.0803 53.4222 62.6915 53.7862 61.3907 55.4789C59.6861 57.6972 57.6972 59.6861 55.4789 61.3907C53.7862 62.6915 53.4222 65.0803 54.6143 66.8203C55.1859 66.4743 55.7471 66.113 56.2973 65.7367C56.8481 65.36 57.388 64.9683 57.9162 64.5624C60.4101 62.6459 62.6459 60.4101 64.5624 57.9162C64.9683 57.388 65.36 56.8481 65.7367 56.2973C66.113 55.7471 66.4743 55.1859 66.8203 54.6143ZM44.6334 70.9581C44.2465 68.8853 42.301 67.4532 40.1846 67.7293C38.8168 67.9077 37.4202 68 36 68C34.5798 68 33.1832 67.9077 31.8154 67.7293C29.699 67.4532 27.7535 68.8853 27.3665 70.9581C28.012 71.117 28.6642 71.2584 29.3228 71.382C29.9752 71.5043 30.6338 71.6091 31.2981 71.6957C32.8369 71.8965 34.4064 72 36 72C37.5936 72 39.163 71.8965 40.7019 71.6957C41.3662 71.6091 42.0248 71.5043 42.6772 71.382C43.3358 71.2584 43.988 71.117 44.6334 70.9581ZM17.3857 66.8203C18.5778 65.0803 18.2138 62.6915 16.5211 61.3907C14.3028 59.6861 12.3139 57.6972 10.6093 55.4789C9.30852 53.7862 6.91971 53.4222 5.1797 54.6143C5.52565 55.1859 5.88705 55.7471 6.26332 56.2973C6.64004 56.8481 7.03167 57.388 7.43762 57.9162C9.35409 60.4101 11.5899 62.6459 14.0838 64.5624C14.612 64.9683 15.1519 65.36 15.7027 65.7367C16.2529 66.113 16.8141 66.4743 17.3857 66.8203ZM1.04188 44.6334C3.1147 44.2465 4.54675 42.301 4.27068 40.1846C4.09227 38.8168 4 37.4202 4 36C4 34.5798 4.09227 33.1832 4.27068 31.8154C4.54675 29.699 3.1147 27.7535 1.04188 27.3665C0.883018 28.012 0.741566 28.6642 0.618047 29.3228C0.495691 29.9752 0.390932 30.6338 0.304283 31.2981C0.103548 32.8369 0 34.4064 0 36C0 37.5936 0.103548 39.163 0.304282 40.7019C0.390932 41.3662 0.495691 42.0248 0.618047 42.6772C0.741566 43.3358 0.883018 43.988 1.04188 44.6334ZM5.1797 17.3857C6.91971 18.5778 9.30852 18.2138 10.6093 16.5211C12.3139 14.3028 14.3028 12.3139 16.5211 10.6093C18.2138 9.30852 18.5778 6.91971 17.3857 5.1797C16.8141 5.52565 16.2529 5.88705 15.7027 6.26332C15.1519 6.64004 14.612 7.03167 14.0838 7.43762C11.5899 9.35409 9.35409 11.5899 7.43762 14.0838C7.03167 14.612 6.64004 15.1519 6.26332 15.7027C5.88705 16.2529 5.52565 16.8141 5.1797 17.3857ZM27.3665 1.04188C27.7535 3.1147 29.699 4.54675 31.8154 4.27068C33.1832 4.09227 34.5798 4 36 4C37.4202 4 38.8168 4.09227 40.1846 4.27068C42.301 4.54675 44.2465 3.1147 44.6335 1.04188C43.988 0.883019 43.3358 0.741566 42.6772 0.618047C42.0248 0.495691 41.3662 0.390932 40.7019 0.304282C39.163 0.103548 37.5936 0 36 0C34.4064 0 32.837 0.103548 31.2981 0.304282C30.6338 0.390931 29.9752 0.495691 29.3228 0.618046C28.6642 0.741566 28.012 0.883018 27.3665 1.04188ZM54.6143 5.1797C53.4222 6.91971 53.7862 9.30852 55.4789 10.6093C57.6972 12.3139 59.6861 14.3028 61.3907 16.5211C62.6915 18.2138 65.0803 18.5778 66.8203 17.3857C66.4743 16.8141 66.113 16.2529 65.7367 15.7027C65.36 15.1519 64.9683 14.612 64.5624 14.0838C62.6459 11.5899 60.4101 9.35409 57.9162 7.43762C57.388 7.03167 56.8481 6.64004 56.2973 6.26332C55.7471 5.88705 55.1859 5.52565 54.6143 5.1797Z" fill="#4285F4"/>
<g clip-path="url(#clip0_1_1427)">
<path d="M39.9545 30.518H40.8636L43.4545 27.939L43.5818 26.844C42.0976 25.54 40.3039 24.6341 38.3701 24.212C36.4364 23.7898 34.4265 23.8654 32.5302 24.4315C30.634 24.9976 28.914 26.0355 27.5328 27.4472C26.1516 28.859 25.1547 30.5979 24.6364 32.4998C24.925 32.382 25.2447 32.3629 25.5454 32.4455L30.7273 31.5949C30.7273 31.5949 30.9909 31.1605 31.1273 31.1876C32.2376 29.9738 33.772 29.2284 35.4164 29.1039C37.0608 28.9794 38.6908 29.4853 39.9727 30.518H39.9545Z" fill="#EA4335"/>
<path d="M47.1455 32.4998C46.55 30.3168 45.3272 28.3543 43.6273 26.8531L39.9909 30.4728C40.7488 31.0892 41.3561 31.8688 41.7672 32.7529C42.1782 33.637 42.3821 34.6025 42.3637 35.5765V36.219C42.7887 36.219 43.2095 36.3024 43.6022 36.4643C43.9948 36.6262 44.3516 36.8634 44.6521 37.1626C44.9526 37.4617 45.191 37.8169 45.3537 38.2077C45.5163 38.5986 45.6 39.0175 45.6 39.4406C45.6 39.8636 45.5163 40.2825 45.3537 40.6734C45.191 41.0642 44.9526 41.4194 44.6521 41.7185C44.3516 42.0177 43.9948 42.255 43.6022 42.4169C43.2095 42.5788 42.7887 42.6621 42.3637 42.6621H35.8909L35.2455 43.3136V47.1777L35.8909 47.8202H42.3637C44.1712 47.8342 45.9352 47.2687 47.3948 46.2074C48.8544 45.1461 49.932 43.6453 50.4683 41.9271C51.0046 40.2088 50.9711 38.3644 50.3727 36.6666C49.7742 34.9688 48.6427 33.5078 47.1455 32.4998Z" fill="#4285F4"/>
<path d="M29.4091 47.784H35.8818V42.6259H29.4091C28.9479 42.6258 28.4922 42.527 28.0727 42.3363L27.1636 42.6169L24.5545 45.1959L24.3273 46.1008C25.7904 47.2006 27.5757 47.7919 29.4091 47.784Z" fill="#34A853"/>
<path d="M29.4091 31.0519C27.6553 31.0623 25.9486 31.6178 24.5273 32.6406C23.106 33.6634 22.0411 35.1026 21.4814 36.7571C20.9217 38.4116 20.8951 40.1988 21.4053 41.8691C21.9155 43.5394 22.9371 45.0094 24.3273 46.0737L28.0818 42.3363C27.6047 42.1218 27.187 41.7952 26.8646 41.3846C26.5421 40.974 26.3245 40.4916 26.2305 39.9789C26.1365 39.4662 26.1689 38.9385 26.3248 38.441C26.4808 37.9435 26.7556 37.4911 27.1259 37.1226C27.4961 36.754 27.9506 36.4804 28.4504 36.3252C28.9502 36.17 29.4803 36.1378 29.9954 36.2313C30.5104 36.3249 30.995 36.5415 31.4075 36.8624C31.82 37.1834 32.1481 37.5992 32.3636 38.0741L36.1182 34.3368C35.3301 33.3113 34.3145 32.4811 33.1506 31.9113C31.9867 31.3414 30.7061 31.0473 29.4091 31.0519Z" fill="#FBBC05"/>
</g>
<defs>
<clipPath id="clip0_1_1427">
<rect width="15" height="12.2165" fill="white" transform="matrix(2 0 0 2 21 23.8125)"/>
</clipPath>
</defs>
</svg>
