<svg width="256" height="256" viewBox="0 0 256 256" fill="none" xmlns="http://www.w3.org/2000/svg">
<path d="M212.48 130C212.48 123.76 211.92 117.76 210.88 112H128V146.08H175.36C173.28 157.04 167.04 166.32 157.68 172.56V194.72H186.24C202.88 179.36 212.48 156.8 212.48 130Z" fill="#4285F4"/>
<path d="M128 216C151.76 216 171.68 208.16 186.24 194.72L157.68 172.56C149.84 177.84 139.84 181.04 128 181.04C105.12 181.04 85.6799 165.6 78.7199 144.8H49.4399V167.52C63.9199 196.24 93.5999 216 128 216Z" fill="#34A853"/>
<path d="M78.72 144.72C76.96 139.44 75.92 133.84 75.92 128C75.92 122.16 76.96 116.56 78.72 111.28V88.5601H49.44C43.44 100.4 40 113.76 40 128C40 142.24 43.44 155.6 49.44 167.44L72.24 149.68L78.72 144.72Z" fill="#FBBC05"/>
<path d="M128 75.04C140.96 75.04 152.48 79.52 161.68 88.16L186.88 62.96C171.6 48.72 151.76 40 128 40C93.5999 40 63.9199 59.76 49.4399 88.56L78.7199 111.28C85.6799 90.48 105.12 75.04 128 75.04Z" fill="#EA4335"/>
</svg>
