<svg width="256" height="256" viewBox="0 0 256 256" fill="none" xmlns="http://www.w3.org/2000/svg">
<path d="M153.309 92.9152H159.127L175.709 76.4094L176.524 69.4017C167.024 61.0558 155.545 55.2582 143.169 52.5566C130.793 49.855 117.929 50.3385 105.793 53.9614C93.6575 57.5844 82.6497 64.2272 73.8099 73.2624C64.9701 82.2975 58.5901 93.4267 55.2727 105.599C57.12 104.845 59.1663 104.723 61.0909 105.251L94.2545 99.8072C94.2545 99.8072 95.9418 97.0272 96.8145 97.201C103.92 89.4326 113.741 84.6617 124.265 83.865C134.789 83.0683 145.221 86.306 153.425 92.9152H153.309Z" fill="#EA4335"/>
<path d="M199.331 105.599C195.519 91.6273 187.694 79.0673 176.815 69.4595L153.542 92.6256C158.392 96.5705 162.279 101.56 164.91 107.219C167.54 112.877 168.846 119.056 168.727 125.29V129.402C171.447 129.402 174.141 129.935 176.654 130.971C179.167 132.007 181.45 133.526 183.373 135.441C185.297 137.355 186.822 139.628 187.863 142.129C188.904 144.631 189.44 147.312 189.44 150.02C189.44 152.727 188.904 155.408 187.863 157.91C186.822 160.411 185.297 162.684 183.373 164.599C181.45 166.513 179.167 168.032 176.654 169.068C174.141 170.104 171.447 170.637 168.727 170.637H127.302L123.171 174.807V199.537L127.302 203.649H168.727C180.295 203.739 191.585 200.12 200.926 193.327C210.268 186.535 217.165 176.93 220.597 165.933C224.029 154.936 223.815 143.132 219.985 132.266C216.155 121.4 208.913 112.05 199.331 105.599Z" fill="#4285F4"/>
<path d="M85.8181 203.417H127.244V170.406H85.8181C82.8667 170.405 79.9499 169.773 77.2653 168.552L71.4472 170.348L54.749 186.854L53.2944 192.645C62.6584 199.684 74.0844 203.468 85.8181 203.417Z" fill="#34A853"/>
<path d="M85.8182 96.3322C74.5939 96.399 63.6708 99.9537 54.5745 106.5C45.4783 113.046 38.6631 122.257 35.081 132.846C31.4988 143.434 31.3285 154.873 34.5939 165.562C37.8592 176.252 44.3972 185.66 53.2946 192.472L77.3237 168.553C74.2701 167.179 71.5968 165.089 69.5331 162.461C67.4695 159.833 66.0771 156.746 65.4755 153.465C64.8739 150.184 65.081 146.806 66.079 143.622C67.077 140.438 68.8362 137.543 71.2055 135.184C73.5749 132.826 76.4837 131.075 79.6824 130.081C82.8811 129.088 86.2742 128.882 89.5705 129.481C92.8669 130.079 95.968 131.465 98.6079 133.52C101.248 135.574 103.348 138.235 104.727 141.274L128.756 117.355C123.713 110.792 117.213 105.479 109.764 101.832C102.315 98.1852 94.1193 96.3028 85.8182 96.3322Z" fill="#FBBC05"/>
</svg>
