<svg width="72" height="72" viewBox="0 0 72 72" fill="none" xmlns="http://www.w3.org/2000/svg">
<circle cx="36" cy="36" r="36" fill="white"/>
<path d="M72 36C72 55.8823 55.8823 72 36 72C16.1177 72 0 55.8823 0 36C0 16.1177 16.1177 0 36 0C55.8823 0 72 16.1177 72 36ZM4.032 36C4.032 53.6554 18.3446 67.968 36 67.968C53.6554 67.968 67.968 53.6554 67.968 36C67.968 18.3446 53.6554 4.032 36 4.032C18.3446 4.032 4.032 18.3446 4.032 36Z" fill="#FF6A00"/>
<path fill-rule="evenodd" clip-rule="evenodd" d="M71.382 42.6772C71.5043 42.0248 71.6091 41.3662 71.6957 40.7019C71.8965 39.163 72 37.5936 72 36C72 34.4064 71.8965 32.837 71.6957 31.2981C71.6091 30.6338 71.5043 29.9752 71.382 29.3228C71.2584 28.6642 71.117 28.012 70.9581 27.3665C68.8853 27.7535 67.4532 29.699 67.7293 31.8154C67.9077 33.1832 68 34.5798 68 36C68 37.4202 67.9077 38.8168 67.7293 40.1846C67.4532 42.301 68.8853 44.2465 70.9581 44.6335C71.117 43.988 71.2584 43.3358 71.382 42.6772ZM66.8203 54.6143C65.0803 53.4222 62.6915 53.7862 61.3907 55.4789C59.6861 57.6972 57.6972 59.6861 55.4789 61.3907C53.7862 62.6915 53.4222 65.0803 54.6143 66.8203C55.1859 66.4743 55.7471 66.113 56.2973 65.7367C56.8481 65.36 57.388 64.9683 57.9162 64.5624C60.4101 62.6459 62.6459 60.4101 64.5624 57.9162C64.9683 57.388 65.36 56.8481 65.7367 56.2973C66.113 55.7471 66.4743 55.1859 66.8203 54.6143ZM44.6334 70.9581C44.2465 68.8853 42.301 67.4532 40.1846 67.7293C38.8168 67.9077 37.4202 68 36 68C34.5798 68 33.1832 67.9077 31.8154 67.7293C29.699 67.4532 27.7535 68.8853 27.3665 70.9581C28.012 71.117 28.6642 71.2584 29.3228 71.382C29.9752 71.5043 30.6338 71.6091 31.2981 71.6957C32.8369 71.8965 34.4064 72 36 72C37.5936 72 39.163 71.8965 40.7019 71.6957C41.3662 71.6091 42.0248 71.5043 42.6772 71.382C43.3358 71.2584 43.988 71.117 44.6334 70.9581ZM17.3857 66.8203C18.5778 65.0803 18.2138 62.6915 16.5211 61.3907C14.3028 59.6861 12.3139 57.6972 10.6093 55.4789C9.30852 53.7862 6.91971 53.4222 5.1797 54.6143C5.52565 55.1859 5.88705 55.7471 6.26332 56.2973C6.64004 56.8481 7.03167 57.388 7.43762 57.9162C9.35409 60.4101 11.5899 62.6459 14.0838 64.5624C14.612 64.9683 15.1519 65.36 15.7027 65.7367C16.2529 66.113 16.8141 66.4743 17.3857 66.8203ZM1.04188 44.6334C3.1147 44.2465 4.54675 42.301 4.27068 40.1846C4.09227 38.8168 4 37.4202 4 36C4 34.5798 4.09227 33.1832 4.27068 31.8154C4.54675 29.699 3.1147 27.7535 1.04188 27.3665C0.883018 28.012 0.741566 28.6642 0.618047 29.3228C0.495691 29.9752 0.390932 30.6338 0.304283 31.2981C0.103548 32.8369 0 34.4064 0 36C0 37.5936 0.103548 39.163 0.304282 40.7019C0.390932 41.3662 0.495691 42.0248 0.618047 42.6772C0.741566 43.3358 0.883018 43.988 1.04188 44.6334ZM5.1797 17.3857C6.91971 18.5778 9.30852 18.2138 10.6093 16.5211C12.3139 14.3028 14.3028 12.3139 16.5211 10.6093C18.2138 9.30852 18.5778 6.91971 17.3857 5.1797C16.8141 5.52565 16.2529 5.88705 15.7027 6.26332C15.1519 6.64004 14.612 7.03167 14.0838 7.43762C11.5899 9.35409 9.35409 11.5899 7.43762 14.0838C7.03167 14.612 6.64004 15.1519 6.26332 15.7027C5.88705 16.2529 5.52565 16.8141 5.1797 17.3857ZM27.3665 1.04188C27.7535 3.1147 29.699 4.54675 31.8154 4.27068C33.1832 4.09227 34.5798 4 36 4C37.4202 4 38.8168 4.09227 40.1846 4.27068C42.301 4.54675 44.2465 3.1147 44.6335 1.04188C43.988 0.883019 43.3358 0.741566 42.6772 0.618047C42.0248 0.495691 41.3662 0.390932 40.7019 0.304282C39.163 0.103548 37.5936 0 36 0C34.4064 0 32.837 0.103548 31.2981 0.304282C30.6338 0.390931 29.9752 0.495691 29.3228 0.618046C28.6642 0.741566 28.012 0.883018 27.3665 1.04188ZM54.6143 5.1797C53.4222 6.91971 53.7862 9.30852 55.4789 10.6093C57.6972 12.3139 59.6861 14.3028 61.3907 16.5211C62.6915 18.2138 65.0803 18.5778 66.8203 17.3857C66.4743 16.8141 66.113 16.2529 65.7367 15.7027C65.36 15.1519 64.9683 14.612 64.5624 14.0838C62.6459 11.5899 60.4101 9.35409 57.9162 7.43762C57.388 7.03167 56.8481 6.64004 56.2973 6.26332C55.7471 5.88705 55.1859 5.52565 54.6143 5.1797Z" fill="#FF6A00"/>
<path d="M31.3483 25.5944L35.8202 21.0693C35.9389 20.9769 36.0577 20.9769 36.1798 21.0693L40.767 25.5944C40.8586 25.6868 40.8892 25.8066 40.8009 25.8956C40.767 25.9846 40.6788 26.0154 40.5872 25.9846H37.8525C37.7338 25.9846 37.615 26.1044 37.615 26.2242V32.0705C37.615 32.1903 37.5234 32.2827 37.4047 32.2827H34.6225C34.5003 32.317 34.3782 32.2211 34.3782 32.1013V26.2276C34.3782 26.1078 34.29 25.988 34.1746 25.988H31.5282C31.3789 25.988 31.2907 25.8682 31.2907 25.7142C31.3178 25.6902 31.3178 25.6286 31.3483 25.5978V25.5944ZM40.7704 46.4056L36.1798 50.9307C36.0577 51.0231 35.9355 51.0231 35.8168 50.9307L31.3449 46.4056C31.2567 46.2858 31.2839 46.1318 31.406 46.0736C31.4399 46.0462 31.4671 46.0154 31.5248 46.0154H34.1712C34.2866 46.0154 34.3748 45.8956 34.3748 45.7758V39.9295C34.3748 39.8097 34.4664 39.7173 34.5852 39.7173H37.4081C37.5268 39.7173 37.6184 39.8063 37.6184 39.9295V45.7758C37.6184 45.8956 37.7372 46.0154 37.8559 46.0154H40.4685C40.5872 45.9264 40.7399 45.9538 40.8281 46.0736C40.8892 46.166 40.862 46.3132 40.767 46.4056H40.7704ZM27.2667 40.4361V37.7662C27.2667 37.6498 27.1479 37.5608 27.0292 37.5266H21.2375C21.1154 37.5266 21 37.441 21 37.3212V34.5008C21 34.381 21.1154 34.2954 21.2375 34.2612H27.0292C27.1479 34.2612 27.2667 34.1722 27.2667 34.0558V31.3859C27.2395 31.2627 27.3006 31.1463 27.3888 31.1121C27.477 31.0539 27.5992 31.1121 27.6603 31.1737L32.1287 35.7604C32.2203 35.8494 32.2203 35.9658 32.1287 36.0616L27.6569 40.5867C27.5686 40.6791 27.4465 40.7065 27.3583 40.6483C27.2904 40.5867 27.2633 40.4977 27.2633 40.4361H27.2667ZM44.7333 31.3825V34.0524C44.7333 34.1756 44.8521 34.2646 44.9708 34.2646H50.7625C50.8846 34.2988 51 34.3844 51 34.5042V37.3212C51 37.4445 50.8846 37.5335 50.7625 37.5335H44.9708C44.8521 37.5677 44.7333 37.6533 44.7333 37.7731V40.4429C44.7605 40.5593 44.6723 40.6483 44.5501 40.6825C44.4619 40.6825 44.4008 40.6483 44.3465 40.5901L39.8679 36.0034C39.7797 35.9144 39.7797 35.798 39.8679 35.7022L44.3465 31.1771C44.4008 31.0847 44.5501 31.0573 44.6417 31.1155C44.7333 31.1771 44.7605 31.2969 44.7333 31.3894V31.3825Z" fill="#FF6A00"/>
<path d="M61.4559 61.4558C58.113 64.7988 54.1444 67.4505 49.7767 69.2597C45.4089 71.0688 40.7276 72 36 72C31.2725 72 26.5912 71.0688 22.2234 69.2597C17.8557 67.4505 13.8871 64.7987 10.5442 61.4558L23.2721 48.7279C24.9436 50.3994 26.9279 51.7252 29.1118 52.6298C31.2956 53.5344 33.6363 54 36.0001 54C38.3639 54 40.7045 53.5344 42.8884 52.6298C45.0722 51.7252 47.0565 50.3994 48.728 48.7279L61.4559 61.4558Z" fill="#FF6A00"/>
<path d="M35.776 68.848C35.072 68.848 34.3893 68.7147 33.728 68.448C33.0773 68.1813 32.5013 67.8027 32 67.312L33.088 66.048C33.4613 66.4 33.888 66.688 34.368 66.912C34.848 67.1253 35.328 67.232 35.808 67.232C36.4053 67.232 36.8587 67.1093 37.168 66.864C37.4773 66.6187 37.632 66.2933 37.632 65.888C37.632 65.4507 37.4773 65.136 37.168 64.944C36.8693 64.752 36.4853 64.5547 36.016 64.352L34.576 63.728C34.2347 63.5787 33.8987 63.3867 33.568 63.152C33.248 62.9173 32.9813 62.6187 32.768 62.256C32.5653 61.8933 32.464 61.456 32.464 60.944C32.464 60.3893 32.6133 59.8933 32.912 59.456C33.2213 59.008 33.6373 58.656 34.16 58.4C34.6933 58.1333 35.3013 58 35.984 58C36.592 58 37.1787 58.1227 37.744 58.368C38.3093 58.6027 38.7947 58.9227 39.2 59.328L38.256 60.512C37.9253 60.2347 37.5733 60.016 37.2 59.856C36.8373 59.696 36.432 59.616 35.984 59.616C35.4933 59.616 35.0933 59.728 34.784 59.952C34.4853 60.1653 34.336 60.464 34.336 60.848C34.336 61.1147 34.4107 61.3387 34.56 61.52C34.72 61.6907 34.928 61.84 35.184 61.968C35.44 62.0853 35.712 62.2027 36 62.32L37.424 62.912C38.0427 63.1787 38.5493 63.5307 38.944 63.968C39.3387 64.3947 39.536 64.9867 39.536 65.744C39.536 66.3093 39.3867 66.8267 39.088 67.296C38.7893 67.7653 38.3573 68.144 37.792 68.432C37.2373 68.7093 36.5653 68.848 35.776 68.848Z" fill="white"/>
</svg>
