<svg width="72" height="72" viewBox="0 0 72 72" fill="none" xmlns="http://www.w3.org/2000/svg">
<circle cx="36" cy="36" r="36" fill="white"/>
<path fill-rule="evenodd" clip-rule="evenodd" d="M71.382 42.6772C71.5043 42.0248 71.6091 41.3662 71.6957 40.7019C71.8965 39.163 72 37.5936 72 36C72 34.4064 71.8965 32.837 71.6957 31.2981C71.6091 30.6338 71.5043 29.9752 71.382 29.3228C71.2584 28.6642 71.117 28.012 70.9581 27.3665C68.8853 27.7535 67.4532 29.699 67.7293 31.8154C67.9077 33.1832 68 34.5798 68 36C68 37.4202 67.9077 38.8168 67.7293 40.1846C67.4532 42.301 68.8853 44.2465 70.9581 44.6335C71.117 43.988 71.2584 43.3358 71.382 42.6772ZM66.8203 54.6143C65.0803 53.4222 62.6915 53.7862 61.3907 55.4789C59.6861 57.6972 57.6972 59.6861 55.4789 61.3907C53.7862 62.6915 53.4222 65.0803 54.6143 66.8203C55.1859 66.4743 55.7471 66.113 56.2973 65.7367C56.8481 65.36 57.388 64.9683 57.9162 64.5624C60.4101 62.6459 62.6459 60.4101 64.5624 57.9162C64.9683 57.388 65.36 56.8481 65.7367 56.2973C66.113 55.7471 66.4743 55.1859 66.8203 54.6143ZM44.6334 70.9581C44.2465 68.8853 42.301 67.4532 40.1846 67.7293C38.8168 67.9077 37.4202 68 36 68C34.5798 68 33.1832 67.9077 31.8154 67.7293C29.699 67.4532 27.7535 68.8853 27.3665 70.9581C28.012 71.117 28.6642 71.2584 29.3228 71.382C29.9752 71.5043 30.6338 71.6091 31.2981 71.6957C32.8369 71.8965 34.4064 72 36 72C37.5936 72 39.163 71.8965 40.7019 71.6957C41.3662 71.6091 42.0248 71.5043 42.6772 71.382C43.3358 71.2584 43.988 71.117 44.6334 70.9581ZM17.3857 66.8203C18.5778 65.0803 18.2138 62.6915 16.5211 61.3907C14.3028 59.6861 12.3139 57.6972 10.6093 55.4789C9.30852 53.7862 6.91971 53.4222 5.1797 54.6143C5.52565 55.1859 5.88705 55.7471 6.26332 56.2973C6.64004 56.8481 7.03167 57.388 7.43762 57.9162C9.35409 60.4101 11.5899 62.6459 14.0838 64.5624C14.612 64.9683 15.1519 65.36 15.7027 65.7367C16.2529 66.113 16.8141 66.4743 17.3857 66.8203ZM1.04188 44.6334C3.1147 44.2465 4.54675 42.301 4.27068 40.1846C4.09227 38.8168 4 37.4202 4 36C4 34.5798 4.09227 33.1832 4.27068 31.8154C4.54675 29.699 3.1147 27.7535 1.04188 27.3665C0.883018 28.012 0.741566 28.6642 0.618047 29.3228C0.495691 29.9752 0.390932 30.6338 0.304283 31.2981C0.103548 32.8369 0 34.4064 0 36C0 37.5936 0.103548 39.163 0.304282 40.7019C0.390932 41.3662 0.495691 42.0248 0.618047 42.6772C0.741566 43.3358 0.883018 43.988 1.04188 44.6334ZM5.1797 17.3857C6.91971 18.5778 9.30852 18.2138 10.6093 16.5211C12.3139 14.3028 14.3028 12.3139 16.5211 10.6093C18.2138 9.30852 18.5778 6.91971 17.3857 5.1797C16.8141 5.52565 16.2529 5.88705 15.7027 6.26332C15.1519 6.64004 14.612 7.03167 14.0838 7.43762C11.5899 9.35409 9.35409 11.5899 7.43762 14.0838C7.03167 14.612 6.64004 15.1519 6.26332 15.7027C5.88705 16.2529 5.52565 16.8141 5.1797 17.3857ZM27.3665 1.04188C27.7535 3.1147 29.699 4.54675 31.8154 4.27068C33.1832 4.09227 34.5798 4 36 4C37.4202 4 38.8168 4.09227 40.1846 4.27068C42.301 4.54675 44.2465 3.1147 44.6335 1.04188C43.988 0.883019 43.3358 0.741566 42.6772 0.618047C42.0248 0.495691 41.3662 0.390932 40.7019 0.304282C39.163 0.103548 37.5936 0 36 0C34.4064 0 32.837 0.103548 31.2981 0.304282C30.6338 0.390931 29.9752 0.495691 29.3228 0.618046C28.6642 0.741566 28.012 0.883018 27.3665 1.04188ZM54.6143 5.1797C53.4222 6.91971 53.7862 9.30852 55.4789 10.6093C57.6972 12.3139 59.6861 14.3028 61.3907 16.5211C62.6915 18.2138 65.0803 18.5778 66.8203 17.3857C66.4743 16.8141 66.113 16.2529 65.7367 15.7027C65.36 15.1519 64.9683 14.612 64.5624 14.0838C62.6459 11.5899 60.4101 9.35409 57.9162 7.43762C57.388 7.03167 56.8481 6.64004 56.2973 6.26332C55.7471 5.88705 55.1859 5.52565 54.6143 5.1797Z" fill="#FF6A00"/>
<path d="M33.0213 30.7135L33.9705 30.337C34.1669 30.9098 34.3469 31.2863 34.5433 31.6627H34.9197C36.049 31.6627 36.8018 32.6119 36.8018 33.5448V33.7412C38.3075 34.314 41.4335 35.3451 41.7117 35.4433C42.0881 34.6904 42.841 34.1176 43.7902 34.1176H43.9866C44.1502 33.2993 44.3466 32.481 44.5594 31.6627H43.201C43.201 31.4663 41.6953 26 35.8526 26H34.527C31.4992 26.5728 29.8135 27.8821 29.0607 29.2078C30.5663 30.337 32.072 31.4663 33.5777 32.2191C33.3977 31.6627 33.2013 31.2863 33.0213 30.7135ZM32.8249 27.3257C33.0213 27.8985 33.2013 28.2749 33.3977 28.8313L32.4485 29.2078L31.8756 27.5057L32.8249 27.3257ZM40.7461 40.8932H41.1225C41.6953 39.944 42.0717 39.1911 42.4482 38.2582C41.8754 37.8818 41.4989 37.129 41.4989 36.3761C41.1716 36.2943 37.9147 35.2469 36.2127 34.6741C36.0163 35.2469 35.4598 35.4269 34.887 35.4269C33.7577 35.4269 33.0049 34.4777 33.0049 33.5448V33.1684C31.4992 32.2191 30.1736 31.2863 28.6679 30.157C28.1114 31.8427 28.3078 33.1684 28.3078 33.3484C28.3078 33.3484 22.0887 33.7248 21.1394 38.2582C20.0102 43.9209 26.0493 45.9831 28.1114 45.9831H37.1619C38.1111 45.2302 38.864 44.281 39.4204 43.3481C39.4204 43.1517 39.224 42.7753 39.224 42.3989C39.2404 41.466 39.9932 40.8932 40.7461 40.8932ZM36.9655 38.0619C36.5891 37.6854 36.2127 37.1126 36.0163 36.7362L36.7691 36.1634C36.9655 36.5398 37.3419 37.1126 37.7184 37.489L36.9655 38.0619ZM37.9147 39.3875L38.6676 38.8147C39.044 39.1911 39.2404 39.7639 39.6168 40.1404L38.864 40.7132C38.4876 40.3204 38.1111 39.944 37.9147 39.3875ZM50.9258 37.6854C49.6002 37.6854 47.7181 37.489 45.836 37.309C45.4595 38.0619 44.7067 38.6347 43.7575 38.6347H43.5611C43.1846 39.5839 42.6118 40.5168 42.2354 41.466C42.4318 41.6624 42.6118 42.0388 42.6118 42.4152C42.6118 43.3645 41.859 43.9209 41.1061 43.9209H40.7461C40.1733 44.6738 39.6168 45.2466 39.044 45.9994H43.5611C43.7575 45.9994 48.4545 45.9994 50.7294 41.6624C50.9258 40.3204 51.1059 39.0111 50.9258 37.6854ZM43.201 45.7867L42.0717 44.6574L42.8246 43.9046L43.9539 45.0338L43.201 45.7867ZM50.7294 36.7526C50.1566 34.2976 48.2745 32.4155 45.4432 31.8591C45.2468 32.6119 45.0668 33.5612 44.8704 34.494C45.4432 34.8705 45.8196 35.4433 45.9996 36.3761C47.8981 36.5562 49.4201 36.7526 50.7294 36.7526Z" fill="#FF6A00"/>
</svg>
