<svg width="72" height="72" viewBox="0 0 72 72" fill="none" xmlns="http://www.w3.org/2000/svg">
<circle cx="36" cy="36" r="36" fill="white"/>
<path d="M72 36C72 55.8823 55.8823 72 36 72C16.1177 72 0 55.8823 0 36C0 16.1177 16.1177 0 36 0C55.8823 0 72 16.1177 72 36ZM4.032 36C4.032 53.6554 18.3446 67.968 36 67.968C53.6554 67.968 67.968 53.6554 67.968 36C67.968 18.3446 53.6554 4.032 36 4.032C18.3446 4.032 4.032 18.3446 4.032 36Z" fill="#00A4EF"/>
<path fill-rule="evenodd" clip-rule="evenodd" d="M71.382 42.6772C71.5043 42.0248 71.6091 41.3662 71.6957 40.7019C71.8965 39.163 72 37.5936 72 36C72 34.4064 71.8965 32.837 71.6957 31.2981C71.6091 30.6338 71.5043 29.9752 71.382 29.3228C71.2584 28.6642 71.117 28.012 70.9581 27.3665C68.8853 27.7535 67.4532 29.699 67.7293 31.8154C67.9077 33.1832 68 34.5798 68 36C68 37.4202 67.9077 38.8168 67.7293 40.1846C67.4532 42.301 68.8853 44.2465 70.9581 44.6335C71.117 43.988 71.2584 43.3358 71.382 42.6772ZM66.8203 54.6143C65.0803 53.4222 62.6915 53.7862 61.3907 55.4789C59.6861 57.6972 57.6972 59.6861 55.4789 61.3907C53.7862 62.6915 53.4222 65.0803 54.6143 66.8203C55.1859 66.4743 55.7471 66.113 56.2973 65.7367C56.8481 65.36 57.388 64.9683 57.9162 64.5624C60.4101 62.6459 62.6459 60.4101 64.5624 57.9162C64.9683 57.388 65.36 56.8481 65.7367 56.2973C66.113 55.7471 66.4743 55.1859 66.8203 54.6143ZM44.6334 70.9581C44.2465 68.8853 42.301 67.4532 40.1846 67.7293C38.8168 67.9077 37.4202 68 36 68C34.5798 68 33.1832 67.9077 31.8154 67.7293C29.699 67.4532 27.7535 68.8853 27.3665 70.9581C28.012 71.117 28.6642 71.2584 29.3228 71.382C29.9752 71.5043 30.6338 71.6091 31.2981 71.6957C32.8369 71.8965 34.4064 72 36 72C37.5936 72 39.163 71.8965 40.7019 71.6957C41.3662 71.6091 42.0248 71.5043 42.6772 71.382C43.3358 71.2584 43.988 71.117 44.6334 70.9581ZM17.3857 66.8203C18.5778 65.0803 18.2138 62.6915 16.5211 61.3907C14.3028 59.6861 12.3139 57.6972 10.6093 55.4789C9.30852 53.7862 6.91971 53.4222 5.1797 54.6143C5.52565 55.1859 5.88705 55.7471 6.26332 56.2973C6.64004 56.8481 7.03167 57.388 7.43762 57.9162C9.35409 60.4101 11.5899 62.6459 14.0838 64.5624C14.612 64.9683 15.1519 65.36 15.7027 65.7367C16.2529 66.113 16.8141 66.4743 17.3857 66.8203ZM1.04188 44.6334C3.1147 44.2465 4.54675 42.301 4.27068 40.1846C4.09227 38.8168 4 37.4202 4 36C4 34.5798 4.09227 33.1832 4.27068 31.8154C4.54675 29.699 3.1147 27.7535 1.04188 27.3665C0.883018 28.012 0.741566 28.6642 0.618047 29.3228C0.495691 29.9752 0.390932 30.6338 0.304283 31.2981C0.103548 32.8369 0 34.4064 0 36C0 37.5936 0.103548 39.163 0.304282 40.7019C0.390932 41.3662 0.495691 42.0248 0.618047 42.6772C0.741566 43.3358 0.883018 43.988 1.04188 44.6334ZM5.1797 17.3857C6.91971 18.5778 9.30852 18.2138 10.6093 16.5211C12.3139 14.3028 14.3028 12.3139 16.5211 10.6093C18.2138 9.30852 18.5778 6.91971 17.3857 5.1797C16.8141 5.52565 16.2529 5.88705 15.7027 6.26332C15.1519 6.64004 14.612 7.03167 14.0838 7.43762C11.5899 9.35409 9.35409 11.5899 7.43762 14.0838C7.03167 14.612 6.64004 15.1519 6.26332 15.7027C5.88705 16.2529 5.52565 16.8141 5.1797 17.3857ZM27.3665 1.04188C27.7535 3.1147 29.699 4.54675 31.8154 4.27068C33.1832 4.09227 34.5798 4 36 4C37.4202 4 38.8168 4.09227 40.1846 4.27068C42.301 4.54675 44.2465 3.1147 44.6335 1.04188C43.988 0.883019 43.3358 0.741566 42.6772 0.618047C42.0248 0.495691 41.3662 0.390932 40.7019 0.304282C39.163 0.103548 37.5936 0 36 0C34.4064 0 32.837 0.103548 31.2981 0.304282C30.6338 0.390931 29.9752 0.495691 29.3228 0.618046C28.6642 0.741566 28.012 0.883018 27.3665 1.04188ZM54.6143 5.1797C53.4222 6.91971 53.7862 9.30852 55.4789 10.6093C57.6972 12.3139 59.6861 14.3028 61.3907 16.5211C62.6915 18.2138 65.0803 18.5778 66.8203 17.3857C66.4743 16.8141 66.113 16.2529 65.7367 15.7027C65.36 15.1519 64.9683 14.612 64.5624 14.0838C62.6459 11.5899 60.4101 9.35409 57.9162 7.43762C57.388 7.03167 56.8481 6.64004 56.2973 6.26332C55.7471 5.88705 55.1859 5.52565 54.6143 5.1797Z" fill="#00A4EF"/>
<path d="M31.4181 23.045H39.555L31.1081 48.0722C31.0213 48.3294 30.856 48.5528 30.6355 48.7111C30.4151 48.8695 30.1505 48.9546 29.8791 48.9547H23.5466C23.3409 48.9547 23.1382 48.9058 22.9552 48.8119C22.7722 48.7181 22.6142 48.582 22.4943 48.4149C22.3743 48.2479 22.2959 48.0547 22.2654 47.8513C22.2349 47.6479 22.2533 47.4402 22.3191 47.2453L30.1888 23.9275C30.2755 23.6702 30.4408 23.4467 30.6614 23.2883C30.8819 23.1299 31.1466 23.045 31.4181 23.045Z" fill="url(#paint0_linear_1_1425)"/>
<path d="M43.2422 39.8316H30.3391C30.2191 39.8314 30.1019 39.8674 30.0027 39.9349C29.9035 40.0023 29.8269 40.0981 29.7829 40.2097C29.7388 40.3212 29.7295 40.4435 29.7559 40.5605C29.7824 40.6775 29.8435 40.7838 29.9312 40.8656L38.2225 48.6044C38.4639 48.8296 38.7817 48.9548 39.1119 48.9547H46.4181L43.2422 39.8316Z" fill="#0078D4"/>
<path d="M31.4181 23.045C31.1436 23.0439 30.876 23.1307 30.6543 23.2925C30.4326 23.4544 30.2685 23.6829 30.1859 23.9447L22.3287 47.2241C22.2586 47.4196 22.2366 47.6292 22.2645 47.8351C22.2925 48.041 22.3696 48.2371 22.4894 48.4069C22.6092 48.5766 22.7682 48.715 22.9528 48.8104C23.1374 48.9058 23.3422 48.9552 23.55 48.9547H30.0459C30.2879 48.9115 30.514 48.8048 30.7012 48.6456C30.8884 48.4863 31.03 48.2803 31.1116 48.0484L32.6784 43.4306L38.2753 48.6509C38.5098 48.8449 38.8041 48.9522 39.1084 48.9547H46.3875L43.195 39.8316L33.8884 39.8337L39.5844 23.045H31.4181Z" fill="url(#paint1_linear_1_1425)"/>
<path d="M41.811 23.9262C41.7243 23.6694 41.5592 23.4462 41.339 23.2881C41.1188 23.13 40.8545 23.045 40.5835 23.045H31.515C31.7861 23.045 32.0503 23.1301 32.2705 23.2881C32.4907 23.4462 32.6558 23.6694 32.7425 23.9262L40.6125 47.245C40.6783 47.4399 40.6967 47.6477 40.6663 47.8511C40.6359 48.0545 40.5574 48.2478 40.4375 48.4149C40.3175 48.582 40.1595 48.7182 39.9765 48.8121C39.7935 48.906 39.5907 48.955 39.385 48.955H48.4538C48.6594 48.9549 48.8621 48.9059 49.0451 48.812C49.2281 48.718 49.3861 48.5819 49.506 48.4148C49.6259 48.2477 49.7043 48.0544 49.7348 47.851C49.7652 47.6476 49.7467 47.4399 49.681 47.245L41.811 23.9262Z" fill="url(#paint2_linear_1_1425)"/>
<defs>
<linearGradient id="paint0_linear_1_1425" x1="34.3838" y1="24.965" x2="25.9334" y2="49.9294" gradientUnits="userSpaceOnUse">
<stop stop-color="#114A8B"/>
<stop offset="1" stop-color="#0669BC"/>
</linearGradient>
<linearGradient id="paint1_linear_1_1425" x1="37.0234" y1="36.5991" x2="35.0687" y2="37.26" gradientUnits="userSpaceOnUse">
<stop stop-opacity="0.3"/>
<stop offset="0.071" stop-opacity="0.2"/>
<stop offset="0.321" stop-opacity="0.1"/>
<stop offset="0.623" stop-opacity="0.05"/>
<stop offset="1" stop-opacity="0"/>
</linearGradient>
<linearGradient id="paint2_linear_1_1425" x1="35.9485" y1="24.2369" x2="45.2244" y2="48.9497" gradientUnits="userSpaceOnUse">
<stop stop-color="#3CCBF4"/>
<stop offset="1" stop-color="#2892DF"/>
</linearGradient>
</defs>
</svg>
