<svg width="72" height="72" viewBox="0 0 72 72" fill="none" xmlns="http://www.w3.org/2000/svg">
<circle cx="36" cy="36" r="36" fill="white"/>
<path fill-rule="evenodd" clip-rule="evenodd" d="M71.382 42.6772C71.5043 42.0248 71.6091 41.3662 71.6957 40.7019C71.8965 39.163 72 37.5936 72 36C72 34.4064 71.8965 32.837 71.6957 31.2981C71.6091 30.6338 71.5043 29.9752 71.382 29.3228C71.2584 28.6642 71.117 28.012 70.9581 27.3665C68.8853 27.7535 67.4532 29.699 67.7293 31.8154C67.9077 33.1832 68 34.5798 68 36C68 37.4202 67.9077 38.8168 67.7293 40.1846C67.4532 42.301 68.8853 44.2465 70.9581 44.6335C71.117 43.988 71.2584 43.3358 71.382 42.6772ZM66.8203 54.6143C65.0803 53.4222 62.6915 53.7862 61.3907 55.4789C59.6861 57.6972 57.6972 59.6861 55.4789 61.3907C53.7862 62.6915 53.4222 65.0803 54.6143 66.8203C55.1859 66.4743 55.7471 66.113 56.2973 65.7367C56.8481 65.36 57.388 64.9683 57.9162 64.5624C60.4101 62.6459 62.6459 60.4101 64.5624 57.9162C64.9683 57.388 65.36 56.8481 65.7367 56.2973C66.113 55.7471 66.4743 55.1859 66.8203 54.6143ZM44.6334 70.9581C44.2465 68.8853 42.301 67.4532 40.1846 67.7293C38.8168 67.9077 37.4202 68 36 68C34.5798 68 33.1832 67.9077 31.8154 67.7293C29.699 67.4532 27.7535 68.8853 27.3665 70.9581C28.012 71.117 28.6642 71.2584 29.3228 71.382C29.9752 71.5043 30.6338 71.6091 31.2981 71.6957C32.8369 71.8965 34.4064 72 36 72C37.5936 72 39.163 71.8965 40.7019 71.6957C41.3662 71.6091 42.0248 71.5043 42.6772 71.382C43.3358 71.2584 43.988 71.117 44.6334 70.9581ZM17.3857 66.8203C18.5778 65.0803 18.2138 62.6915 16.5211 61.3907C14.3028 59.6861 12.3139 57.6972 10.6093 55.4789C9.30852 53.7862 6.91971 53.4222 5.1797 54.6143C5.52565 55.1859 5.88705 55.7471 6.26332 56.2973C6.64004 56.8481 7.03167 57.388 7.43762 57.9162C9.35409 60.4101 11.5899 62.6459 14.0838 64.5624C14.612 64.9683 15.1519 65.36 15.7027 65.7367C16.2529 66.113 16.8141 66.4743 17.3857 66.8203ZM1.04188 44.6334C3.1147 44.2465 4.54675 42.301 4.27068 40.1846C4.09227 38.8168 4 37.4202 4 36C4 34.5798 4.09227 33.1832 4.27068 31.8154C4.54675 29.699 3.1147 27.7535 1.04188 27.3665C0.883018 28.012 0.741566 28.6642 0.618047 29.3228C0.495691 29.9752 0.390932 30.6338 0.304283 31.2981C0.103548 32.8369 0 34.4064 0 36C0 37.5936 0.103548 39.163 0.304282 40.7019C0.390932 41.3662 0.495691 42.0248 0.618047 42.6772C0.741566 43.3358 0.883018 43.988 1.04188 44.6334ZM5.1797 17.3857C6.91971 18.5778 9.30852 18.2138 10.6093 16.5211C12.3139 14.3028 14.3028 12.3139 16.5211 10.6093C18.2138 9.30852 18.5778 6.91971 17.3857 5.1797C16.8141 5.52565 16.2529 5.88705 15.7027 6.26332C15.1519 6.64004 14.612 7.03167 14.0838 7.43762C11.5899 9.35409 9.35409 11.5899 7.43762 14.0838C7.03167 14.612 6.64004 15.1519 6.26332 15.7027C5.88705 16.2529 5.52565 16.8141 5.1797 17.3857ZM27.3665 1.04188C27.7535 3.1147 29.699 4.54675 31.8154 4.27068C33.1832 4.09227 34.5798 4 36 4C37.4202 4 38.8168 4.09227 40.1846 4.27068C42.301 4.54675 44.2465 3.1147 44.6335 1.04188C43.988 0.883019 43.3358 0.741566 42.6772 0.618047C42.0248 0.495691 41.3662 0.390932 40.7019 0.304282C39.163 0.103548 37.5936 0 36 0C34.4064 0 32.837 0.103548 31.2981 0.304282C30.6338 0.390931 29.9752 0.495691 29.3228 0.618046C28.6642 0.741566 28.012 0.883018 27.3665 1.04188ZM54.6143 5.1797C53.4222 6.91971 53.7862 9.30852 55.4789 10.6093C57.6972 12.3139 59.6861 14.3028 61.3907 16.5211C62.6915 18.2138 65.0803 18.5778 66.8203 17.3857C66.4743 16.8141 66.113 16.2529 65.7367 15.7027C65.36 15.1519 64.9683 14.612 64.5624 14.0838C62.6459 11.5899 60.4101 9.35409 57.9162 7.43762C57.388 7.03167 56.8481 6.64004 56.2973 6.26332C55.7471 5.88705 55.1859 5.52565 54.6143 5.1797Z" fill="#00A4EF"/>
<g clip-path="url(#clip0_5_31042)">
<path d="M42.2334 37.9167C43.3011 37.9167 44.1667 37.0511 44.1667 35.9833C44.1667 34.9156 43.3011 34.05 42.2334 34.05C41.1656 34.05 40.3 34.9156 40.3 35.9833C40.3 37.0511 41.1656 37.9167 42.2334 37.9167Z" fill="url(#paint0_linear_5_31042)"/>
<path d="M36.0666 37.9333C37.1344 37.9333 38 37.0677 38 36C38 34.9322 37.1344 34.0667 36.0666 34.0667C34.9989 34.0667 34.1333 34.9322 34.1333 36C34.1333 37.0677 34.9989 37.9333 36.0666 37.9333Z" fill="url(#paint1_linear_5_31042)"/>
<path d="M29.9 37.9333C30.9678 37.9333 31.8333 37.0677 31.8333 36C31.8333 34.9322 30.9678 34.0667 29.9 34.0667C28.8323 34.0667 27.9667 34.9322 27.9667 36C27.9667 37.0677 28.8323 37.9333 29.9 37.9333Z" fill="url(#paint2_linear_5_31042)"/>
<path d="M31.3033 43.73L30.1967 44.8383C30.1029 44.932 29.9758 44.9846 29.8433 44.9846C29.7108 44.9846 29.5838 44.932 29.49 44.8383L21.3 36.6733C21.1125 36.486 21.007 36.232 21.0067 35.967C21.0064 35.702 21.1113 35.4477 21.2983 35.26L22.4033 34.15L31.3033 43.0233C31.3499 43.0698 31.3869 43.125 31.4122 43.1858C31.4374 43.2465 31.4504 43.3117 31.4504 43.3775C31.4504 43.4433 31.4374 43.5085 31.4122 43.5692C31.3869 43.63 31.3499 43.6852 31.3033 43.7317V43.73Z" fill="#50E6FF"/>
<path d="M30.03 27.18L31.14 28.2867C31.2336 28.3804 31.2862 28.5075 31.2862 28.64C31.2862 28.7725 31.2336 28.8996 31.14 28.9933L22.3967 37.7617L21.2867 36.6567C21.1936 36.5639 21.1197 36.4537 21.0692 36.3324C21.0188 36.211 20.9927 36.0809 20.9926 35.9495C20.9924 35.8181 21.0181 35.6879 21.0683 35.5665C21.1185 35.445 21.1921 35.3347 21.285 35.2417L29.3233 27.1833C29.4171 27.0897 29.5442 27.0371 29.6767 27.0371C29.8092 27.0371 29.9363 27.0897 30.03 27.1833V27.18Z" fill="#1490DF"/>
<path d="M49.5951 34.1333L50.7001 35.2433C50.8873 35.4308 50.9925 35.685 50.9925 35.95C50.9925 36.215 50.8873 36.4692 50.7001 36.6567L42.5084 44.8233C42.4146 44.917 42.2876 44.9696 42.1551 44.9696C42.0226 44.9696 41.8955 44.917 41.8017 44.8233L40.6951 43.7133C40.6014 43.6196 40.5488 43.4925 40.5488 43.36C40.5488 43.2275 40.6014 43.1004 40.6951 43.0067L49.5951 34.1333Z" fill="#50E6FF"/>
<path d="M50.6967 36.645L49.5884 37.7517L40.8434 28.9833C40.7967 28.9369 40.7598 28.8817 40.7345 28.8209C40.7093 28.7601 40.6963 28.695 40.6963 28.6292C40.6963 28.5634 40.7093 28.4982 40.7345 28.4374C40.7598 28.3766 40.7967 28.3214 40.8434 28.275L41.9667 27.1583C42.0604 27.0647 42.1875 27.0121 42.32 27.0121C42.4525 27.0121 42.5796 27.0647 42.6733 27.1583L50.7117 35.2183C50.8044 35.3114 50.8779 35.4219 50.928 35.5434C50.978 35.6649 51.0036 35.7951 51.0033 35.9265C51.003 36.0579 50.9768 36.188 50.9262 36.3093C50.8756 36.4306 50.8015 36.5407 50.7084 36.6333L50.6967 36.645Z" fill="#1490DF"/>
</g>
<defs>
<linearGradient id="paint0_linear_5_31042" x1="40.87" y1="34.627" x2="43.6072" y2="37.3565" gradientUnits="userSpaceOnUse">
<stop stop-color="#86D633"/>
<stop offset="1" stop-color="#5E9624"/>
</linearGradient>
<linearGradient id="paint1_linear_5_31042" x1="31.3" y1="35.3167" x2="34.0166" y2="38.05" gradientUnits="userSpaceOnUse">
<stop stop-color="#86D633"/>
<stop offset="1" stop-color="#5E9624"/>
</linearGradient>
<linearGradient id="paint2_linear_5_31042" x1="25.1333" y1="35.3167" x2="27.85" y2="38.05" gradientUnits="userSpaceOnUse">
<stop stop-color="#86D633"/>
<stop offset="1" stop-color="#5E9624"/>
</linearGradient>
<clipPath id="clip0_5_31042">
<rect width="15" height="15" fill="white" transform="matrix(2 0 0 2 21 21)"/>
</clipPath>
</defs>
</svg>
