<svg width="72" height="72" viewBox="0 0 72 72" fill="none" xmlns="http://www.w3.org/2000/svg">
<circle cx="36" cy="36" r="36" fill="white"/>
<path d="M72 36C72 55.8823 55.8823 72 36 72C16.1177 72 0 55.8823 0 36C0 16.1177 16.1177 0 36 0C55.8823 0 72 16.1177 72 36ZM4.032 36C4.032 53.6554 18.3446 67.968 36 67.968C53.6554 67.968 67.968 53.6554 67.968 36C67.968 18.3446 53.6554 4.032 36 4.032C18.3446 4.032 4.032 18.3446 4.032 36Z" fill="#FF9900"/>
<path fill-rule="evenodd" clip-rule="evenodd" d="M71.382 42.6772C71.5043 42.0248 71.6091 41.3662 71.6957 40.7019C71.8965 39.163 72 37.5936 72 36C72 34.4064 71.8965 32.837 71.6957 31.2981C71.6091 30.6338 71.5043 29.9752 71.382 29.3228C71.2584 28.6642 71.117 28.012 70.9581 27.3665C68.8853 27.7535 67.4532 29.699 67.7293 31.8154C67.9077 33.1832 68 34.5798 68 36C68 37.4202 67.9077 38.8168 67.7293 40.1846C67.4532 42.301 68.8853 44.2465 70.9581 44.6335C71.117 43.988 71.2584 43.3358 71.382 42.6772ZM66.8203 54.6143C65.0803 53.4222 62.6915 53.7862 61.3907 55.4789C59.6861 57.6972 57.6972 59.6861 55.4789 61.3907C53.7862 62.6915 53.4222 65.0803 54.6143 66.8203C55.1859 66.4743 55.7471 66.113 56.2973 65.7367C56.8481 65.36 57.388 64.9683 57.9162 64.5624C60.4101 62.6459 62.6459 60.4101 64.5624 57.9162C64.9683 57.388 65.36 56.8481 65.7367 56.2973C66.113 55.7471 66.4743 55.1859 66.8203 54.6143ZM44.6334 70.9581C44.2465 68.8853 42.301 67.4532 40.1846 67.7293C38.8168 67.9077 37.4202 68 36 68C34.5798 68 33.1832 67.9077 31.8154 67.7293C29.699 67.4532 27.7535 68.8853 27.3665 70.9581C28.012 71.117 28.6642 71.2584 29.3228 71.382C29.9752 71.5043 30.6338 71.6091 31.2981 71.6957C32.8369 71.8965 34.4064 72 36 72C37.5936 72 39.163 71.8965 40.7019 71.6957C41.3662 71.6091 42.0248 71.5043 42.6772 71.382C43.3358 71.2584 43.988 71.117 44.6334 70.9581ZM17.3857 66.8203C18.5778 65.0803 18.2138 62.6915 16.5211 61.3907C14.3028 59.6861 12.3139 57.6972 10.6093 55.4789C9.30852 53.7862 6.91971 53.4222 5.1797 54.6143C5.52565 55.1859 5.88705 55.7471 6.26332 56.2973C6.64004 56.8481 7.03167 57.388 7.43762 57.9162C9.35409 60.4101 11.5899 62.6459 14.0838 64.5624C14.612 64.9683 15.1519 65.36 15.7027 65.7367C16.2529 66.113 16.8141 66.4743 17.3857 66.8203ZM1.04188 44.6334C3.1147 44.2465 4.54675 42.301 4.27068 40.1846C4.09227 38.8168 4 37.4202 4 36C4 34.5798 4.09227 33.1832 4.27068 31.8154C4.54675 29.699 3.1147 27.7535 1.04188 27.3665C0.883018 28.012 0.741566 28.6642 0.618047 29.3228C0.495691 29.9752 0.390932 30.6338 0.304283 31.2981C0.103548 32.8369 0 34.4064 0 36C0 37.5936 0.103548 39.163 0.304282 40.7019C0.390932 41.3662 0.495691 42.0248 0.618047 42.6772C0.741566 43.3358 0.883018 43.988 1.04188 44.6334ZM5.1797 17.3857C6.91971 18.5778 9.30852 18.2138 10.6093 16.5211C12.3139 14.3028 14.3028 12.3139 16.5211 10.6093C18.2138 9.30852 18.5778 6.91971 17.3857 5.1797C16.8141 5.52565 16.2529 5.88705 15.7027 6.26332C15.1519 6.64004 14.612 7.03167 14.0838 7.43762C11.5899 9.35409 9.35409 11.5899 7.43762 14.0838C7.03167 14.612 6.64004 15.1519 6.26332 15.7027C5.88705 16.2529 5.52565 16.8141 5.1797 17.3857ZM27.3665 1.04188C27.7535 3.1147 29.699 4.54675 31.8154 4.27068C33.1832 4.09227 34.5798 4 36 4C37.4202 4 38.8168 4.09227 40.1846 4.27068C42.301 4.54675 44.2465 3.1147 44.6335 1.04188C43.988 0.883019 43.3358 0.741566 42.6772 0.618047C42.0248 0.495691 41.3662 0.390932 40.7019 0.304282C39.163 0.103548 37.5936 0 36 0C34.4064 0 32.837 0.103548 31.2981 0.304282C30.6338 0.390931 29.9752 0.495691 29.3228 0.618046C28.6642 0.741566 28.012 0.883018 27.3665 1.04188ZM54.6143 5.1797C53.4222 6.91971 53.7862 9.30852 55.4789 10.6093C57.6972 12.3139 59.6861 14.3028 61.3907 16.5211C62.6915 18.2138 65.0803 18.5778 66.8203 17.3857C66.4743 16.8141 66.113 16.2529 65.7367 15.7027C65.36 15.1519 64.9683 14.612 64.5624 14.0838C62.6459 11.5899 60.4101 9.35409 57.9162 7.43762C57.388 7.03167 56.8481 6.64004 56.2973 6.26332C55.7471 5.88705 55.1859 5.52565 54.6143 5.1797Z" fill="#FF9900"/>
<g clip-path="url(#clip0_1_1423)">
<path d="M29.4929 33.5202C29.4929 33.8931 29.5326 34.1956 29.602 34.4173C29.6814 34.6391 29.7806 34.881 29.9194 35.1431C29.969 35.2238 29.9889 35.3044 29.9889 35.375C29.9889 35.4758 29.9294 35.5766 29.8004 35.6774L29.1755 36.1008C29.0863 36.1613 28.997 36.1915 28.9176 36.1915C28.8185 36.1915 28.7193 36.1411 28.6201 36.0504C28.4812 35.8992 28.3622 35.7379 28.263 35.5766C28.1638 35.4052 28.0646 35.2137 27.9555 34.9819C27.1818 35.9093 26.2098 36.373 25.0394 36.373C24.2062 36.373 23.5416 36.131 23.0556 35.6472C22.5696 35.1633 22.3216 34.5181 22.3216 33.7117C22.3216 32.8548 22.6192 32.1593 23.2242 31.6351C23.8293 31.1109 24.6327 30.8488 25.6543 30.8488C25.9916 30.8488 26.3387 30.879 26.7057 30.9294C27.0727 30.9798 27.4496 31.0605 27.8464 31.1512V30.4153C27.8464 29.6492 27.6877 29.1149 27.3802 28.8024C27.0628 28.4899 26.5272 28.3387 25.7634 28.3387C25.4163 28.3387 25.0592 28.379 24.6922 28.4698C24.3252 28.5605 23.9681 28.6714 23.621 28.8125C23.4623 28.8831 23.3432 28.9234 23.2738 28.9435C23.2044 28.9637 23.1548 28.9738 23.1151 28.9738C22.9762 28.9738 22.9068 28.873 22.9068 28.6613V28.1673C22.9068 28.006 22.9266 27.8851 22.9762 27.8145C23.0258 27.744 23.1151 27.6734 23.254 27.6028C23.6011 27.4214 24.0177 27.2702 24.5037 27.1492C24.9898 27.0181 25.5055 26.9577 26.0511 26.9577C27.2314 26.9577 28.0944 27.2298 28.6498 27.7742C29.1954 28.3185 29.4731 29.1452 29.4731 30.254V33.5202H29.4929ZM25.4659 35.0524C25.7932 35.0524 26.1304 34.9919 26.4875 34.871C26.8446 34.75 27.162 34.5282 27.4298 34.2258C27.5885 34.0343 27.7075 33.8226 27.7671 33.5806C27.8266 33.3387 27.8662 33.0464 27.8662 32.7036V32.2802C27.5786 32.2097 27.2711 32.1492 26.9537 32.1089C26.6363 32.0685 26.3288 32.0484 26.0213 32.0484C25.3568 32.0484 24.8707 32.1794 24.5434 32.4516C24.2161 32.7238 24.0574 33.1069 24.0574 33.6109C24.0574 34.0847 24.1764 34.4375 24.4244 34.6794C24.6624 34.9315 25.0096 35.0524 25.4659 35.0524ZM33.4307 36.1411C33.2522 36.1411 33.1332 36.1109 33.0538 36.0403C32.9745 35.9798 32.905 35.8387 32.8455 35.6472L30.5146 27.8548C30.4551 27.6532 30.4253 27.5222 30.4253 27.4516C30.4253 27.2903 30.5047 27.1996 30.6634 27.1996H31.6354C31.8239 27.1996 31.9528 27.2298 32.0222 27.3004C32.1016 27.3609 32.1611 27.502 32.2206 27.6935L33.887 34.3669L35.4343 27.6935C35.4839 27.4919 35.5434 27.3609 35.6228 27.3004C35.7021 27.2399 35.841 27.1996 36.0195 27.1996H36.8131C37.0015 27.1996 37.1305 27.2298 37.2098 27.3004C37.2892 27.3609 37.3586 27.502 37.3983 27.6935L38.9655 34.4476L40.6814 27.6935C40.7409 27.4919 40.8104 27.3609 40.8798 27.3004C40.9591 27.2399 41.0881 27.1996 41.2666 27.1996H42.1891C42.3478 27.1996 42.4371 27.2802 42.4371 27.4516C42.4371 27.502 42.4271 27.5524 42.4172 27.6129C42.4073 27.6734 42.3875 27.754 42.3478 27.8649L39.9573 35.6573C39.8978 35.8589 39.8284 35.9899 39.749 36.0504C39.6697 36.1109 39.5407 36.1512 39.3721 36.1512H38.5191C38.3306 36.1512 38.2017 36.121 38.1223 36.0504C38.043 35.9798 37.9736 35.8488 37.9339 35.6472L36.3965 29.1452L34.869 35.6371C34.8194 35.8387 34.7599 35.9698 34.6805 36.0403C34.6011 36.1109 34.4623 36.1411 34.2837 36.1411H33.4307ZM46.1765 36.4133C45.6607 36.4133 45.1449 36.3528 44.649 36.2319C44.153 36.1109 43.7662 35.9798 43.5083 35.8286C43.3496 35.7379 43.2405 35.6371 43.2008 35.5464C43.1611 35.4556 43.1413 35.3548 43.1413 35.2641V34.75C43.1413 34.5383 43.2206 34.4375 43.3694 34.4375C43.4289 34.4375 43.4885 34.4476 43.548 34.4677C43.6075 34.4879 43.6967 34.5282 43.7959 34.5685C44.1332 34.7198 44.5002 34.8407 44.887 34.9214C45.2838 35.002 45.6706 35.0423 46.0674 35.0423C46.6922 35.0423 47.1783 34.9315 47.5155 34.7097C47.8528 34.4879 48.0313 34.1653 48.0313 33.752C48.0313 33.4698 47.942 33.2379 47.7635 33.0464C47.5849 32.8548 47.2477 32.6835 46.7617 32.5222L45.3234 32.0685C44.5994 31.8367 44.0637 31.494 43.7364 31.0403C43.4091 30.5968 43.2405 30.1028 43.2405 29.5786C43.2405 29.1552 43.3298 28.7823 43.5083 28.4597C43.6868 28.1371 43.9249 27.8548 44.2224 27.6331C44.52 27.4012 44.8573 27.2298 45.254 27.1089C45.6508 26.9879 46.0674 26.9375 46.5038 26.9375C46.722 26.9375 46.9501 26.9476 47.1684 26.9778C47.3965 27.0081 47.6048 27.0484 47.8131 27.0887C48.0115 27.1391 48.1999 27.1895 48.3785 27.25C48.557 27.3105 48.6959 27.371 48.795 27.4315C48.9339 27.5121 49.0331 27.5927 49.0926 27.6835C49.1521 27.7641 49.1819 27.875 49.1819 28.0161V28.4899C49.1819 28.7016 49.1025 28.8125 48.9537 28.8125C48.8744 28.8125 48.7455 28.7722 48.5768 28.6915C48.0115 28.4294 47.3766 28.2984 46.6724 28.2984C46.107 28.2984 45.6607 28.3891 45.3532 28.5806C45.0457 28.7722 44.887 29.0645 44.887 29.4778C44.887 29.7601 44.9862 30.002 45.1846 30.1935C45.383 30.3851 45.75 30.5766 46.2757 30.748L47.6841 31.2016C48.3983 31.4335 48.9141 31.756 49.2216 32.1694C49.529 32.5827 49.6778 33.0565 49.6778 33.5806C49.6778 34.0141 49.5886 34.4073 49.4199 34.75C49.2414 35.0927 49.0033 35.3952 48.6959 35.6371C48.3884 35.8891 48.0214 36.0706 47.5949 36.2016C47.1485 36.3427 46.6823 36.4133 46.1765 36.4133Z" fill="black"/>
<path fill-rule="evenodd" clip-rule="evenodd" d="M48.0511 41.3125C44.7878 43.7621 40.0466 45.0625 35.9699 45.0625C30.2566 45.0625 25.1088 42.9153 21.2206 39.3468C20.9131 39.0645 21.1908 38.6815 21.5578 38.9032C25.7634 41.3831 30.951 42.8851 36.3171 42.8851C39.9375 42.8851 43.9149 42.119 47.575 40.5464C48.1205 40.2944 48.5867 40.9093 48.0511 41.3125Z" fill="#FF9900"/>
<path fill-rule="evenodd" clip-rule="evenodd" d="M49.41 39.7399C48.9934 39.1956 46.6525 39.4778 45.5912 39.6089C45.2738 39.6492 45.2242 39.3669 45.5119 39.1552C47.3766 37.8246 50.4415 38.2077 50.7986 38.6512C51.1557 39.1048 50.6994 42.2198 48.9537 43.7117C48.6859 43.9435 48.428 43.8226 48.547 43.5202C48.9438 42.5222 49.8266 40.2742 49.41 39.7399Z" fill="#FF9900"/>
</g>
<defs>
<clipPath id="clip0_1_1423">
<rect width="15" height="15" fill="white" transform="matrix(2 0 0 2 21 21)"/>
</clipPath>
</defs>
</svg>
