<svg width="256" height="256" viewBox="0 0 256 256" fill="none" xmlns="http://www.w3.org/2000/svg">
<path d="M85.7887 110.129C85.7887 112.516 86.0426 114.452 86.4869 115.871C86.9948 117.29 87.6296 118.839 88.5183 120.516C88.8357 121.032 88.9627 121.548 88.9627 122C88.9627 122.645 88.5818 123.29 87.7566 123.935L83.7573 126.645C83.186 127.032 82.6146 127.226 82.1068 127.226C81.472 127.226 80.8372 126.903 80.2024 126.323C79.3136 125.355 78.5519 124.323 77.917 123.29C77.2822 122.194 76.6474 120.968 75.9492 119.484C70.9977 125.419 64.7765 128.387 57.2858 128.387C51.9534 128.387 47.7002 126.839 44.5897 123.742C41.4791 120.645 39.8921 116.516 39.8921 111.355C39.8921 105.871 41.7965 101.419 45.6688 98.0645C49.5412 94.7097 54.6831 93.0323 61.2216 93.0323C63.38 93.0323 65.6018 93.2258 67.9506 93.5484C70.2994 93.871 72.7116 94.3871 75.2509 94.9677V90.2581C75.2509 85.3548 74.2352 81.9355 72.2673 79.9355C70.2359 77.9355 66.8079 76.9677 61.9199 76.9677C59.6981 76.9677 57.4128 77.2258 55.064 77.8065C52.7152 78.3871 50.4299 79.0968 48.2081 80C47.1924 80.4516 46.4306 80.7097 45.9862 80.8387C45.5419 80.9677 45.2245 81.0323 44.9705 81.0323C44.0818 81.0323 43.6375 80.3871 43.6375 79.0323V75.871C43.6375 74.8387 43.7644 74.0645 44.0818 73.6129C44.3992 73.1613 44.9705 72.7097 45.8593 72.2581C48.0811 71.0968 50.7473 70.129 53.8579 69.3548C56.9684 68.5161 60.2694 68.129 63.7608 68.129C71.3151 68.129 76.8379 69.871 80.3928 73.3548C83.8842 76.8387 85.6617 82.129 85.6617 89.2258V110.129H85.7887ZM60.0155 119.935C62.1103 119.935 64.2687 119.548 66.554 118.774C68.8393 118 70.8707 116.581 72.5847 114.645C73.6004 113.419 74.3621 112.065 74.743 110.516C75.1239 108.968 75.3778 107.097 75.3778 104.903V102.194C73.5369 101.742 71.569 101.355 69.5376 101.097C67.5062 100.839 65.5383 100.71 63.5704 100.71C59.3172 100.71 56.2066 101.548 54.1118 103.29C52.0169 105.032 51.0012 107.484 51.0012 110.71C51.0012 113.742 51.763 116 53.35 117.548C54.8735 119.161 57.0954 119.935 60.0155 119.935ZM110.991 126.903C109.848 126.903 109.086 126.71 108.578 126.258C108.07 125.871 107.626 124.968 107.245 123.742L92.3272 73.871C91.9463 72.5806 91.7559 71.7419 91.7559 71.2903C91.7559 70.2581 92.2637 69.6774 93.2794 69.6774H99.5005C100.707 69.6774 101.532 69.871 101.976 70.3226C102.484 70.7097 102.865 71.6129 103.246 72.8387L113.911 115.548L123.814 72.8387C124.131 71.5484 124.512 70.7097 125.02 70.3226C125.528 69.9355 126.416 69.6774 127.559 69.6774H132.637C133.844 69.6774 134.669 69.871 135.177 70.3226C135.685 70.7097 136.129 71.6129 136.383 72.8387L146.413 116.065L157.395 72.8387C157.776 71.5484 158.22 70.7097 158.665 70.3226C159.172 69.9355 159.998 69.6774 161.14 69.6774H167.044C168.06 69.6774 168.631 70.1935 168.631 71.2903C168.631 71.6129 168.568 71.9355 168.504 72.3226C168.441 72.7097 168.314 73.2258 168.06 73.9355L152.761 123.806C152.38 125.097 151.936 125.935 151.428 126.323C150.92 126.71 150.095 126.968 149.015 126.968H143.556C142.35 126.968 141.525 126.774 141.017 126.323C140.509 125.871 140.065 125.032 139.811 123.742L129.971 82.129L120.195 123.677C119.878 124.968 119.497 125.806 118.989 126.258C118.481 126.71 117.593 126.903 116.45 126.903H110.991ZM192.563 128.645C189.262 128.645 185.961 128.258 182.787 127.484C179.613 126.71 177.137 125.871 175.487 124.903C174.471 124.323 173.773 123.677 173.519 123.097C173.265 122.516 173.138 121.871 173.138 121.29V118C173.138 116.645 173.646 116 174.598 116C174.979 116 175.36 116.065 175.741 116.194C176.122 116.323 176.693 116.581 177.328 116.839C179.486 117.806 181.835 118.581 184.311 119.097C186.85 119.613 189.326 119.871 191.865 119.871C195.864 119.871 198.975 119.161 201.133 117.742C203.292 116.323 204.434 114.258 204.434 111.613C204.434 109.806 203.863 108.323 202.72 107.097C201.578 105.871 199.419 104.774 196.309 103.742L187.104 100.839C182.47 99.3548 179.042 97.1613 176.947 94.2581C174.852 91.4194 173.773 88.2581 173.773 84.9032C173.773 82.1936 174.344 79.8065 175.487 77.7419C176.63 75.6774 178.153 73.871 180.058 72.4516C181.962 70.9677 184.12 69.871 186.66 69.0968C189.199 68.3226 191.865 68 194.658 68C196.055 68 197.515 68.0645 198.911 68.2581C200.371 68.4516 201.704 68.7097 203.038 68.9677C204.307 69.2903 205.513 69.6129 206.656 70C207.799 70.3871 208.687 70.7742 209.322 71.1613C210.211 71.6774 210.846 72.1935 211.227 72.7742C211.607 73.2903 211.798 74 211.798 74.9032V77.9355C211.798 79.2903 211.29 80 210.338 80C209.83 80 209.005 79.7419 207.926 79.2258C204.307 77.5484 200.244 76.7097 195.737 76.7097C192.119 76.7097 189.262 77.2903 187.294 78.5161C185.326 79.7419 184.311 81.6129 184.311 84.2581C184.311 86.0645 184.946 87.6129 186.215 88.8387C187.485 90.0645 189.834 91.2903 193.198 92.3871L202.212 95.2903C206.783 96.7742 210.084 98.8387 212.052 101.484C214.02 104.129 214.972 107.161 214.972 110.516C214.972 113.29 214.401 115.806 213.321 118C212.179 120.194 210.655 122.129 208.687 123.677C206.719 125.29 204.371 126.452 201.641 127.29C198.784 128.194 195.801 128.645 192.563 128.645Z" fill="white"/>
<path fill-rule="evenodd" clip-rule="evenodd" d="M204.561 160C183.676 175.677 153.332 184 127.241 184C90.6765 184 57.73 170.258 32.8456 147.419C30.8777 145.613 32.6551 143.161 35.0039 144.581C61.9197 160.452 95.1202 170.065 129.463 170.065C152.634 170.065 178.089 165.161 201.514 155.097C205.005 153.484 207.989 157.419 204.561 160Z" fill="#FF9900"/>
<path fill-rule="evenodd" clip-rule="evenodd" d="M213.258 149.936C210.592 146.452 195.61 148.258 188.818 149.097C186.786 149.355 186.469 147.548 188.31 146.194C200.244 137.677 219.86 140.129 222.145 142.968C224.43 145.871 221.51 165.806 210.338 175.355C208.624 176.839 206.973 176.065 207.735 174.129C210.274 167.742 215.924 153.355 213.258 149.936Z" fill="#FF9900"/>
</svg>
