<svg width="72" height="72" viewBox="0 0 72 72" fill="none" xmlns="http://www.w3.org/2000/svg">
<circle cx="36" cy="36" r="36" fill="white"/>
<path d="M72 36C72 55.8823 55.8823 72 36 72C16.1177 72 0 55.8823 0 36C0 16.1177 16.1177 0 36 0C55.8823 0 72 16.1177 72 36ZM4.032 36C4.032 53.6554 18.3446 67.968 36 67.968C53.6554 67.968 67.968 53.6554 67.968 36C67.968 18.3446 53.6554 4.032 36 4.032C18.3446 4.032 4.032 18.3446 4.032 36Z" fill="#FF9900"/>
<path fill-rule="evenodd" clip-rule="evenodd" d="M71.382 42.6772C71.5043 42.0248 71.6091 41.3662 71.6957 40.7019C71.8965 39.163 72 37.5936 72 36C72 34.4064 71.8965 32.837 71.6957 31.2981C71.6091 30.6338 71.5043 29.9752 71.382 29.3228C71.2584 28.6642 71.117 28.012 70.9581 27.3665C68.8853 27.7535 67.4532 29.699 67.7293 31.8154C67.9077 33.1832 68 34.5798 68 36C68 37.4202 67.9077 38.8168 67.7293 40.1846C67.4532 42.301 68.8853 44.2465 70.9581 44.6335C71.117 43.988 71.2584 43.3358 71.382 42.6772ZM66.8203 54.6143C65.0803 53.4222 62.6915 53.7862 61.3907 55.4789C59.6861 57.6972 57.6972 59.6861 55.4789 61.3907C53.7862 62.6915 53.4222 65.0803 54.6143 66.8203C55.1859 66.4743 55.7471 66.113 56.2973 65.7367C56.8481 65.36 57.388 64.9683 57.9162 64.5624C60.4101 62.6459 62.6459 60.4101 64.5624 57.9162C64.9683 57.388 65.36 56.8481 65.7367 56.2973C66.113 55.7471 66.4743 55.1859 66.8203 54.6143ZM44.6334 70.9581C44.2465 68.8853 42.301 67.4532 40.1846 67.7293C38.8168 67.9077 37.4202 68 36 68C34.5798 68 33.1832 67.9077 31.8154 67.7293C29.699 67.4532 27.7535 68.8853 27.3665 70.9581C28.012 71.117 28.6642 71.2584 29.3228 71.382C29.9752 71.5043 30.6338 71.6091 31.2981 71.6957C32.8369 71.8965 34.4064 72 36 72C37.5936 72 39.163 71.8965 40.7019 71.6957C41.3662 71.6091 42.0248 71.5043 42.6772 71.382C43.3358 71.2584 43.988 71.117 44.6334 70.9581ZM17.3857 66.8203C18.5778 65.0803 18.2138 62.6915 16.5211 61.3907C14.3028 59.6861 12.3139 57.6972 10.6093 55.4789C9.30852 53.7862 6.91971 53.4222 5.1797 54.6143C5.52565 55.1859 5.88705 55.7471 6.26332 56.2973C6.64004 56.8481 7.03167 57.388 7.43762 57.9162C9.35409 60.4101 11.5899 62.6459 14.0838 64.5624C14.612 64.9683 15.1519 65.36 15.7027 65.7367C16.2529 66.113 16.8141 66.4743 17.3857 66.8203ZM1.04188 44.6334C3.1147 44.2465 4.54675 42.301 4.27068 40.1846C4.09227 38.8168 4 37.4202 4 36C4 34.5798 4.09227 33.1832 4.27068 31.8154C4.54675 29.699 3.1147 27.7535 1.04188 27.3665C0.883018 28.012 0.741566 28.6642 0.618047 29.3228C0.495691 29.9752 0.390932 30.6338 0.304283 31.2981C0.103548 32.8369 0 34.4064 0 36C0 37.5936 0.103548 39.163 0.304282 40.7019C0.390932 41.3662 0.495691 42.0248 0.618047 42.6772C0.741566 43.3358 0.883018 43.988 1.04188 44.6334ZM5.1797 17.3857C6.91971 18.5778 9.30852 18.2138 10.6093 16.5211C12.3139 14.3028 14.3028 12.3139 16.5211 10.6093C18.2138 9.30852 18.5778 6.91971 17.3857 5.1797C16.8141 5.52565 16.2529 5.88705 15.7027 6.26332C15.1519 6.64004 14.612 7.03167 14.0838 7.43762C11.5899 9.35409 9.35409 11.5899 7.43762 14.0838C7.03167 14.612 6.64004 15.1519 6.26332 15.7027C5.88705 16.2529 5.52565 16.8141 5.1797 17.3857ZM27.3665 1.04188C27.7535 3.1147 29.699 4.54675 31.8154 4.27068C33.1832 4.09227 34.5798 4 36 4C37.4202 4 38.8168 4.09227 40.1846 4.27068C42.301 4.54675 44.2465 3.1147 44.6335 1.04188C43.988 0.883019 43.3358 0.741566 42.6772 0.618047C42.0248 0.495691 41.3662 0.390932 40.7019 0.304282C39.163 0.103548 37.5936 0 36 0C34.4064 0 32.837 0.103548 31.2981 0.304282C30.6338 0.390931 29.9752 0.495691 29.3228 0.618046C28.6642 0.741566 28.012 0.883018 27.3665 1.04188ZM54.6143 5.1797C53.4222 6.91971 53.7862 9.30852 55.4789 10.6093C57.6972 12.3139 59.6861 14.3028 61.3907 16.5211C62.6915 18.2138 65.0803 18.5778 66.8203 17.3857C66.4743 16.8141 66.113 16.2529 65.7367 15.7027C65.36 15.1519 64.9683 14.612 64.5624 14.0838C62.6459 11.5899 60.4101 9.35409 57.9162 7.43762C57.388 7.03167 56.8481 6.64004 56.2973 6.26332C55.7471 5.88705 55.1859 5.52565 54.6143 5.1797Z" fill="#FF9900"/>
<path d="M27 36C27 37.6569 25.6569 39 24 39C22.3431 39 21 37.6569 21 36C21 34.3431 22.3431 33 24 33C25.6569 33 27 34.3431 27 36ZM22.2 36C22.2 36.9941 23.0059 37.8 24 37.8C24.9941 37.8 25.8 36.9941 25.8 36C25.8 35.0059 24.9941 34.2 24 34.2C23.0059 34.2 22.2 35.0059 22.2 36Z" fill="#FF9900"/>
<path d="M51 36C51 37.6569 49.6569 39 48 39C46.3431 39 45 37.6569 45 36C45 34.3431 46.3431 33 48 33C49.6569 33 51 34.3431 51 36ZM46.2 36C46.2 36.9941 47.0059 37.8 48 37.8C48.9941 37.8 49.8 36.9941 49.8 36C49.8 35.0059 48.9941 34.2 48 34.2C47.0059 34.2 46.2 35.0059 46.2 36Z" fill="#FF9900"/>
<path d="M39 24C39 25.6569 37.6569 27 36 27C34.3431 27 33 25.6569 33 24C33 22.3431 34.3431 21 36 21C37.6569 21 39 22.3431 39 24ZM34.2 24C34.2 24.9941 35.0059 25.8 36 25.8C36.9941 25.8 37.8 24.9941 37.8 24C37.8 23.0059 36.9941 22.2 36 22.2C35.0059 22.2 34.2 23.0059 34.2 24Z" fill="#FF9900"/>
<path d="M39 48C39 49.6569 37.6569 51 36 51C34.3431 51 33 49.6569 33 48C33 46.3431 34.3431 45 36 45C37.6569 45 39 46.3431 39 48ZM34.2 48C34.2 48.9941 35.0059 49.8 36 49.8C36.9941 49.8 37.8 48.9941 37.8 48C37.8 47.0059 36.9941 46.2 36 46.2C35.0059 46.2 34.2 47.0059 34.2 48Z" fill="#FF9900"/>
<path d="M40.5 36C40.5 38.4853 38.4853 40.5 36 40.5C33.5147 40.5 31.5 38.4853 31.5 36C31.5 33.5147 33.5147 31.5 36 31.5C38.4853 31.5 40.5 33.5147 40.5 36ZM32.85 36C32.85 37.7397 34.2603 39.15 36 39.15C37.7397 39.15 39.15 37.7397 39.15 36C39.15 34.2603 37.7397 32.85 36 32.85C34.2603 32.85 32.85 34.2603 32.85 36Z" fill="#FF9900"/>
<path fill-rule="evenodd" clip-rule="evenodd" d="M35.5 31.75V26.75H36.5V31.75H35.5Z" fill="#FF9900"/>
<path fill-rule="evenodd" clip-rule="evenodd" d="M31.75 36.5H26.75V35.5H31.75V36.5Z" fill="#FF9900"/>
<path fill-rule="evenodd" clip-rule="evenodd" d="M45.25 36.5H40.25V35.5H45.25V36.5Z" fill="#FF9900"/>
<path fill-rule="evenodd" clip-rule="evenodd" d="M35.5 45.25V40.25H36.5V45.25H35.5Z" fill="#FF9900"/>
</svg>
