<svg width="72" height="72" viewBox="0 0 72 72" fill="none" xmlns="http://www.w3.org/2000/svg">
<circle cx="36" cy="36" r="36" fill="white"/>
<path fill-rule="evenodd" clip-rule="evenodd" d="M71.382 42.6772C71.5043 42.0248 71.6091 41.3662 71.6957 40.7019C71.8965 39.163 72 37.5936 72 36C72 34.4064 71.8965 32.837 71.6957 31.2981C71.6091 30.6338 71.5043 29.9752 71.382 29.3228C71.2584 28.6642 71.117 28.012 70.9581 27.3665C68.8853 27.7535 67.4532 29.699 67.7293 31.8154C67.9077 33.1832 68 34.5798 68 36C68 37.4202 67.9077 38.8168 67.7293 40.1846C67.4532 42.301 68.8853 44.2465 70.9581 44.6335C71.117 43.988 71.2584 43.3358 71.382 42.6772ZM66.8203 54.6143C65.0803 53.4222 62.6915 53.7862 61.3907 55.4789C59.6861 57.6972 57.6972 59.6861 55.4789 61.3907C53.7862 62.6915 53.4222 65.0803 54.6143 66.8203C55.1859 66.4743 55.7471 66.113 56.2973 65.7367C56.8481 65.36 57.388 64.9683 57.9162 64.5624C60.4101 62.6459 62.6459 60.4101 64.5624 57.9162C64.9683 57.388 65.36 56.8481 65.7367 56.2973C66.113 55.7471 66.4743 55.1859 66.8203 54.6143ZM44.6334 70.9581C44.2465 68.8853 42.301 67.4532 40.1846 67.7293C38.8168 67.9077 37.4202 68 36 68C34.5798 68 33.1832 67.9077 31.8154 67.7293C29.699 67.4532 27.7535 68.8853 27.3665 70.9581C28.012 71.117 28.6642 71.2584 29.3228 71.382C29.9752 71.5043 30.6338 71.6091 31.2981 71.6957C32.8369 71.8965 34.4064 72 36 72C37.5936 72 39.163 71.8965 40.7019 71.6957C41.3662 71.6091 42.0248 71.5043 42.6772 71.382C43.3358 71.2584 43.988 71.117 44.6334 70.9581ZM17.3857 66.8203C18.5778 65.0803 18.2138 62.6915 16.5211 61.3907C14.3028 59.6861 12.3139 57.6972 10.6093 55.4789C9.30852 53.7862 6.91971 53.4222 5.1797 54.6143C5.52565 55.1859 5.88705 55.7471 6.26332 56.2973C6.64004 56.8481 7.03167 57.388 7.43762 57.9162C9.35409 60.4101 11.5899 62.6459 14.0838 64.5624C14.612 64.9683 15.1519 65.36 15.7027 65.7367C16.2529 66.113 16.8141 66.4743 17.3857 66.8203ZM1.04188 44.6334C3.1147 44.2465 4.54675 42.301 4.27068 40.1846C4.09227 38.8168 4 37.4202 4 36C4 34.5798 4.09227 33.1832 4.27068 31.8154C4.54675 29.699 3.1147 27.7535 1.04188 27.3665C0.883018 28.012 0.741566 28.6642 0.618047 29.3228C0.495691 29.9752 0.390932 30.6338 0.304283 31.2981C0.103548 32.8369 0 34.4064 0 36C0 37.5936 0.103548 39.163 0.304282 40.7019C0.390932 41.3662 0.495691 42.0248 0.618047 42.6772C0.741566 43.3358 0.883018 43.988 1.04188 44.6334ZM5.1797 17.3857C6.91971 18.5778 9.30852 18.2138 10.6093 16.5211C12.3139 14.3028 14.3028 12.3139 16.5211 10.6093C18.2138 9.30852 18.5778 6.91971 17.3857 5.1797C16.8141 5.52565 16.2529 5.88705 15.7027 6.26332C15.1519 6.64004 14.612 7.03167 14.0838 7.43762C11.5899 9.35409 9.35409 11.5899 7.43762 14.0838C7.03167 14.612 6.64004 15.1519 6.26332 15.7027C5.88705 16.2529 5.52565 16.8141 5.1797 17.3857ZM27.3665 1.04188C27.7535 3.1147 29.699 4.54675 31.8154 4.27068C33.1832 4.09227 34.5798 4 36 4C37.4202 4 38.8168 4.09227 40.1846 4.27068C42.301 4.54675 44.2465 3.1147 44.6335 1.04188C43.988 0.883019 43.3358 0.741566 42.6772 0.618047C42.0248 0.495691 41.3662 0.390932 40.7019 0.304282C39.163 0.103548 37.5936 0 36 0C34.4064 0 32.837 0.103548 31.2981 0.304282C30.6338 0.390931 29.9752 0.495691 29.3228 0.618046C28.6642 0.741566 28.012 0.883018 27.3665 1.04188ZM54.6143 5.1797C53.4222 6.91971 53.7862 9.30852 55.4789 10.6093C57.6972 12.3139 59.6861 14.3028 61.3907 16.5211C62.6915 18.2138 65.0803 18.5778 66.8203 17.3857C66.4743 16.8141 66.113 16.2529 65.7367 15.7027C65.36 15.1519 64.9683 14.612 64.5624 14.0838C62.6459 11.5899 60.4101 9.35409 57.9162 7.43762C57.388 7.03167 56.8481 6.64004 56.2973 6.26332C55.7471 5.88705 55.1859 5.52565 54.6143 5.1797Z" fill="#FF9900"/>
<path d="M51.0687 34.714V42.1195C51.0397 44.9538 49.5062 50.2736 43.8086 50.2736C41.8573 50.2736 40.2693 49.645 39.0375 48.4131C36.6974 46.0403 36.7591 42.2649 36.7591 42.0905V34.5977C36.7591 34.3434 36.9045 34.0817 37.177 33.9691L43.6596 31.2438C43.8049 31.1893 44.0157 31.1893 44.1683 31.2438L50.6436 34.0781C50.9161 34.1944 51.0651 34.4233 51.0651 34.7104L51.0687 34.714ZM49.7242 35.1428L43.8994 32.6246L38.1072 35.0519V42.1159C38.1072 42.1449 38.0818 45.4953 40.0331 47.4684C40.9634 48.4131 42.2497 48.8964 43.8122 48.8964C49.5716 48.8964 49.6915 42.3739 49.7242 42.1159V35.1428ZM43.6559 34.6559C43.8085 34.5977 44.0193 34.5977 44.1647 34.6559L47.9183 36.2293C48.1908 36.3456 48.3434 36.6035 48.3434 36.8615V42.7845C48.3434 44.4415 47.3514 47.5592 43.8122 47.5592C40.4219 47.5592 39.4881 44.4415 39.4881 42.7845V36.8615C39.4881 36.6072 39.6407 36.3455 39.9132 36.2329L43.6559 34.6559ZM27.217 40.0628H34.717V41.4364H27.2206C23.9503 41.4364 21.2468 39.0309 21.0687 35.9713V35.5425C21.0687 31.9378 23.5578 30.5352 25.1203 30.0192C25.084 29.8739 25.084 29.7358 25.084 29.5941C25.084 26.4691 26.9735 23.5004 29.677 22.4139C33.0709 21.0076 36.9081 21.6363 39.2809 23.8964C39.9713 24.5868 40.5709 25.4698 41.0833 26.5854C41.7373 26.0403 42.4641 25.7569 43.238 25.7569C45.0985 25.7569 47.1697 27.3303 47.5876 29.8739C49.0593 30.0737 50.3492 30.964 51.0033 32.2794L49.7787 32.879C49.27 31.8252 48.2163 31.1893 46.9881 31.1893C46.6247 31.1893 46.334 30.9349 46.2977 30.5607C46.1777 28.3005 44.4372 27.1304 43.238 27.1304C42.584 27.1304 41.919 27.5011 41.3776 28.2205C41.2322 28.4168 40.9924 28.5003 40.7526 28.4749C40.5128 28.4458 40.302 28.2714 40.2075 28.0461C39.6988 26.6726 39.0738 25.6115 38.318 24.8703C36.3412 22.9807 33.0709 22.4648 30.193 23.6711C27.733 24.6704 26.443 27.3848 26.443 29.5941C26.443 29.8485 26.5011 30.19 26.5339 30.448C26.5629 30.7932 26.3522 31.1093 26.0251 31.1929C24.6734 31.5091 22.4277 32.512 22.4277 35.5425L22.4205 35.5716C22.4205 35.6806 22.4205 35.7714 22.4568 35.855C22.5731 38.2314 24.6734 40.0628 27.2243 40.0628H27.217ZM43.2417 46.1312V36.3201L40.8434 37.3158V42.7772C40.8434 43.0934 40.9597 45.7205 43.2417 46.1275V46.1312ZM46.9844 37.3158L44.5861 36.3165V46.0984C46.8972 45.6115 46.9844 42.8935 46.9844 42.7809V37.3158Z" fill="#FF9900"/>
</svg>
