<svg width="426" height="64" viewBox="0 0 426 64" fill="none" xmlns="http://www.w3.org/2000/svg">
<path d="M302.875 10.56C293.062 10.56 263.622 10.56 263.622 10.56C262.768 10.56 262.235 11.4133 262.662 12.16L264.795 16.5333C265.008 16.96 265.328 17.1733 265.862 17.1733H280.688V52.0533C280.688 52.6933 281.222 53.12 281.862 53.12H287.195C287.835 53.12 288.368 52.5867 288.368 52.0533V17.1733H302.982C303.622 17.1733 304.048 16.64 304.048 16.1067V11.7333C304.048 11.0933 303.463 10.56 302.875 10.56Z" fill="white"/>
<path d="M124.528 37.2267L133.061 19.3067C133.595 18.24 135.195 18.24 135.728 19.3067L144.261 37.2267H124.635H124.528ZM140.848 14.2933C139.781 12.0533 137.435 10.6667 134.875 10.6667H133.595C131.035 10.6667 128.795 12.0533 127.621 14.2933L109.381 51.6267C109.061 52.3734 109.595 53.2267 110.448 53.2267H116.101C116.528 53.2267 116.955 53.0134 117.168 52.5867L121.541 43.52H147.141L151.515 52.5867C151.728 53.0134 152.048 53.2267 152.581 53.2267H158.235C159.088 53.2267 159.621 52.3734 159.301 51.6267L140.848 14.2933Z" fill="white"/>
<path d="M199.088 10.56H193.435C193.008 10.56 192.582 10.7733 192.368 11.2L177.115 43.4133C176.582 44.48 174.982 44.48 174.448 43.4133L158.982 11.2C158.768 10.7733 158.448 10.56 157.915 10.56H152.262C151.408 10.56 150.875 11.4133 151.302 12.16L169.648 49.4933C170.715 51.7333 173.062 53.12 175.515 53.12H175.728C178.288 53.12 180.528 51.7333 181.595 49.4933L199.942 12.16C200.262 11.4133 199.728 10.56 198.982 10.56H199.088Z" fill="white"/>
<path d="M213.701 10.56C212.368 10.56 208.368 10.56 208.368 10.56C207.728 10.56 207.195 11.0933 207.195 11.6266V51.9466C207.195 52.5866 207.728 53.0133 208.368 53.0133H213.701C214.341 53.0133 214.875 52.48 214.875 51.9466V11.7333C214.875 11.0933 214.341 10.56 213.701 10.56Z" fill="white"/>
<path d="M235.888 37.2267L244.422 19.3067C244.955 18.24 246.555 18.24 247.088 19.3067L255.622 37.2267H235.995H235.888ZM252.315 14.2933C251.248 12.0533 248.795 10.6667 246.235 10.6667H244.955C242.395 10.6667 240.155 12.0533 238.982 14.2933L220.742 51.6267C220.422 52.3734 220.955 53.2267 221.808 53.2267H227.462C227.888 53.2267 228.315 53.0134 228.528 52.5867L232.902 43.52H258.502L262.875 52.5867C263.088 53.0134 263.408 53.2267 263.942 53.2267H269.595C270.448 53.2267 270.982 52.3734 270.555 51.6267C270.555 51.6267 256.875 23.6267 252.315 14.2933Z" fill="white"/>
<path d="M337.755 28.16C336.261 29.3333 334.235 29.76 331.675 29.76H318.555V17.0667H331.675C334.235 17.0667 336.261 17.6 337.755 18.7733C339.248 19.84 339.995 21.44 339.995 23.4667C339.995 25.4933 339.248 26.9867 337.755 28.16ZM345.861 29.9733C347.141 28.0533 347.781 25.8133 347.781 23.36C347.781 20.9067 347.141 18.56 345.861 16.64C344.581 14.72 342.768 13.2267 340.528 12.16C338.288 11.0933 335.515 10.56 332.528 10.56H312.261C311.621 10.56 311.088 11.0933 311.088 11.6267V51.9467C311.088 52.5867 311.621 53.0133 312.261 53.0133H317.595C318.235 53.0133 318.768 52.48 318.768 51.9467V36.0533H325.275L339.461 52.6933C339.675 52.9067 339.995 53.12 340.315 53.12H346.501C347.461 53.12 347.995 52.0533 347.355 51.3067L334.128 35.9467C336.475 35.7333 338.715 35.3067 340.528 34.4533C342.768 33.3867 344.581 31.8933 345.861 29.9733Z" fill="white"/>
<path d="M363.675 10.56C362.342 10.56 358.342 10.56 358.342 10.56C357.702 10.56 357.168 11.0933 357.168 11.6266V51.9466C357.168 52.5866 357.702 53.0133 358.342 53.0133H363.675C364.315 53.0133 364.848 52.48 364.848 51.9466V11.7333C364.848 11.0933 364.315 10.56 363.675 10.56Z" fill="white"/>
<path d="M399.195 31.8933L414.875 12.48C415.515 11.7333 414.875 10.6667 414.021 10.6667H407.835C407.515 10.6667 407.088 10.7733 406.875 11.0933L394.715 26.24L382.555 11.0933C382.341 10.88 381.915 10.6667 381.595 10.6667H375.408C374.448 10.6667 373.915 11.7333 374.555 12.48L390.235 31.8933L374.555 51.3067C373.915 52.0533 374.555 53.12 375.408 53.12H381.595C381.915 53.12 382.341 53.0133 382.555 52.6933L394.715 37.5467L406.875 52.6933C407.088 52.9067 407.515 53.12 407.835 53.12H414.021C414.981 53.12 415.515 52.0533 414.875 51.3067L399.195 31.8933Z" fill="white"/>
<path d="M419.867 14.5796H420.25C420.736 14.5796 421.024 14.3709 421.024 14.0463C421.024 13.705 420.755 13.5342 420.307 13.5287C420.071 13.5287 419.936 13.545 419.867 13.5563V14.5796ZM418.9 12.9842C419.214 12.9399 419.68 12.9071 420.199 12.9071C420.839 12.9071 421.287 12.99 421.593 13.1987C421.849 13.375 421.989 13.6333 421.989 13.9742C421.989 14.4475 421.6 14.7721 421.228 14.8879V14.9042C421.529 15.0087 421.696 15.2558 421.804 15.5971C421.938 16.0155 422.073 16.4992 422.156 16.6425H421.159C421.087 16.5379 420.986 16.235 420.858 15.7792C420.743 15.3167 420.557 15.19 420.16 15.1845H419.867V16.6425H418.9V12.9842Z" fill="white"/>
<path d="M420.434 11.772C418.67 11.772 417.235 13.2066 417.235 14.9705C417.235 16.7338 418.67 18.1683 420.434 18.1683C422.198 18.1683 423.632 16.7338 423.632 14.9705C423.632 13.2066 422.198 11.772 420.434 11.772ZM420.434 19.235C418.082 19.235 416.169 17.3221 416.169 14.9705C416.169 12.6188 418.082 10.7054 420.434 10.7054C422.785 10.7054 424.699 12.6188 424.699 14.9705C424.699 17.3221 422.785 19.235 420.434 19.235Z" fill="white"/>
<path d="M85.0002 43.2C82.7793 40.3692 75.9933 32 75.9933 32L59.3369 11.2L54.2166 4.92308C51.749 1.84615 47.9241 0 43.9759 0C40.0277 0 36.1412 1.78462 33.6119 4.92308L28.4916 11.2L11.8351 32L2.82832 43.2C-1.67509 48.7385 -0.688041 56.8615 4.98749 61.2308C7.45512 63.0154 10.2312 64 13.1306 64C16.0301 64 20.842 62.2769 23.4947 59.0769L28.615 52.8L41.7551 36.3692L34.7224 21.9692L59.4603 52.8L64.5806 59.0769C67.1716 62.2769 70.9964 64 74.9446 64C78.8928 64 80.6201 63.1385 83.0878 61.2308C88.7633 56.8615 89.627 48.7385 85.1236 43.2H85.0002Z" fill="url(#paint0_linear_196_10500)"/>
<defs>
<linearGradient id="paint0_linear_196_10500" x1="44" y1="0" x2="44" y2="64" gradientUnits="userSpaceOnUse">
<stop stop-color="#FA6B1E"/>
<stop offset="1" stop-color="#E24C01"/>
</linearGradient>
</defs>
</svg>
