<svg width="426" height="229" viewBox="0 0 426 229" fill="none" xmlns="http://www.w3.org/2000/svg">
<path d="M261.471 171.536H208.453C207.301 171.536 206.58 172.672 207.156 173.666L210.038 179.488C210.326 180.056 210.758 180.34 211.479 180.34H231.504V226.774C231.504 227.626 232.225 228.194 233.089 228.194H240.293C241.157 228.194 241.877 227.484 241.877 226.774V180.34H261.615C262.48 180.34 263.056 179.63 263.056 178.92V173.098C263.056 172.246 262.336 171.536 261.471 171.536Z" fill="white"/>
<path d="M42.6277 176.506C41.187 173.524 38.0174 171.678 34.5597 171.678H32.8308C29.3731 171.678 26.3477 173.524 24.7629 176.506L0.126782 226.206C-0.30543 227.2 0.414924 228.336 1.56749 228.336H9.20324C9.77952 228.336 10.3558 228.052 10.6439 227.484L16.5508 215.414H51.1278L57.0347 227.484C57.3229 228.052 57.7551 228.336 58.4754 228.336H66.1112C67.2638 228.336 67.9841 227.2 67.5519 226.206L42.6277 176.506ZM20.5848 207.036L32.1105 183.18C32.8308 181.76 34.9919 181.76 35.7123 183.18L47.2379 207.036H20.5848Z" fill="white"/>
<path d="M121.29 171.536H113.655C113.078 171.536 112.502 171.82 112.214 172.388L91.6119 215.272C90.8915 216.692 88.7305 216.692 88.0101 215.272L67.1199 172.388C66.8317 171.82 66.3995 171.536 65.6792 171.536H58.0434C56.8908 171.536 56.1705 172.672 56.7468 173.666L81.5269 223.366C82.9676 226.348 86.1372 228.194 89.4508 228.194H89.739C93.1967 228.194 96.2222 226.348 97.6629 223.366L122.443 173.666C122.875 172.672 122.155 171.536 121.146 171.536H121.29Z" fill="white"/>
<path d="M141.028 171.536H133.825C132.96 171.536 132.24 172.246 132.24 172.956V226.632C132.24 227.484 132.96 228.052 133.825 228.052H141.028C141.892 228.052 142.613 227.342 142.613 226.632V173.098C142.613 172.246 141.892 171.536 141.028 171.536Z" fill="white"/>
<path d="M193.182 176.506C191.741 173.524 188.428 171.678 184.97 171.678H183.241C179.783 171.678 176.758 173.524 175.173 176.506L150.537 226.206C150.105 227.2 150.825 228.336 151.978 228.336H159.613C160.19 228.336 160.766 228.052 161.054 227.484L166.961 215.414H201.538L207.445 227.484C207.733 228.052 208.165 228.336 208.886 228.336H216.521C217.674 228.336 218.394 227.2 217.818 226.206C217.818 226.206 199.377 189.002 193.182 176.506ZM170.995 207.036L182.521 183.18C183.241 181.76 185.402 181.76 186.122 183.18L197.648 207.036H170.995Z" fill="white"/>
<path d="M319.532 197.38C321.26 194.824 322.125 191.842 322.125 188.576C322.125 185.31 321.26 182.186 319.532 179.63C317.803 177.074 315.353 175.086 312.328 173.666C309.303 172.246 305.557 171.536 301.523 171.536H274.149C273.285 171.536 272.564 172.246 272.564 172.956V226.632C272.564 227.484 273.285 228.052 274.149 228.052H281.353C282.217 228.052 282.938 227.342 282.938 226.632V205.474H291.726L310.887 227.626C311.175 227.91 311.608 228.194 312.04 228.194H320.396C321.693 228.194 322.413 226.774 321.549 225.78L303.684 205.332C306.853 205.048 309.879 204.48 312.328 203.344C315.353 201.924 317.803 199.936 319.532 197.38ZM308.582 194.966C306.565 196.528 303.828 197.096 300.37 197.096H282.649V180.198H300.37C303.828 180.198 306.565 180.908 308.582 182.47C310.599 183.89 311.608 186.02 311.608 188.718C311.608 191.416 310.599 193.404 308.582 194.966Z" fill="white"/>
<path d="M343.592 171.536H336.388C335.524 171.536 334.803 172.246 334.803 172.956V226.632C334.803 227.484 335.524 228.052 336.388 228.052H343.592C344.456 228.052 345.176 227.342 345.176 226.632V173.098C345.176 172.246 344.456 171.536 343.592 171.536Z" fill="white"/>
<path d="M391.567 199.936L412.746 174.092C413.61 173.098 412.746 171.678 411.593 171.678H403.237C402.805 171.678 402.229 171.82 401.94 172.246L385.516 192.41L369.092 172.246C368.804 171.962 368.228 171.678 367.796 171.678H359.44C358.143 171.678 357.423 173.098 358.287 174.092L379.465 199.936L358.287 225.78C357.423 226.774 358.287 228.194 359.44 228.194H367.796C368.228 228.194 368.804 228.194 369.092 227.626L385.516 207.462L401.94 227.626C402.229 227.91 402.805 228.194 403.237 228.194H411.593C412.89 228.194 413.61 226.774 412.746 225.78L391.567 199.936Z" fill="white"/>
<path d="M418.076 174.802C418.508 174.802 419.085 174.802 419.805 174.802C420.525 174.802 421.246 174.802 421.678 175.228C421.966 175.512 422.254 175.796 422.254 176.222C422.254 176.648 421.678 177.216 421.246 177.5C421.678 177.642 421.822 177.926 421.966 178.494C422.11 179.062 422.398 179.63 422.398 179.914H421.102C421.102 179.914 420.814 179.346 420.669 178.778C420.525 178.21 420.237 177.926 419.661 177.926H419.229V179.914H417.932V175.086L418.076 174.802ZM419.373 176.932H419.949C420.669 176.932 420.958 176.648 420.958 176.222C420.958 175.796 420.525 175.512 419.949 175.512C419.661 175.512 419.517 175.512 419.373 175.512V176.932Z" fill="white"/>
<path d="M420.237 183.18C417.067 183.18 414.474 180.624 414.474 177.5C414.474 174.376 417.067 171.82 420.237 171.82C423.407 171.82 426 174.376 426 177.5C426 180.624 423.407 183.18 420.237 183.18ZM420.237 173.24C417.788 173.24 415.915 175.086 415.915 177.5C415.915 179.914 417.788 181.76 420.237 181.76C422.686 181.76 424.559 179.914 424.559 177.5C424.559 175.086 422.686 173.24 420.237 173.24Z" fill="white"/>
<path d="M309.014 99.684C303.828 93.152 287.98 73.84 287.98 73.84L249.081 25.844L237.123 11.36C231.36 4.26 222.428 0 213.207 0C203.987 0 194.91 4.118 189.003 11.36L177.045 25.844L138.146 73.84L117.112 99.684C106.595 112.464 108.9 131.208 122.155 141.29C127.917 145.408 134.401 147.68 141.172 147.68C147.943 147.68 159.181 143.704 165.376 136.32L177.334 121.836L208.021 83.922L191.597 50.694L249.369 121.836L261.327 136.32C267.378 143.704 276.31 147.68 285.531 147.68C294.751 147.68 298.785 145.692 304.548 141.29C317.803 131.208 319.82 112.464 309.302 99.684H309.014Z" fill="white"/>
</svg>
