<svg width="88" height="64" viewBox="0 0 88 64" fill="none" xmlns="http://www.w3.org/2000/svg">
<path d="M85.0002 43.2C82.7793 40.3692 75.9933 32 75.9933 32L59.3369 11.2L54.2166 4.92308C51.749 1.84615 47.9241 0 43.9759 0C40.0277 0 36.1412 1.78462 33.6119 4.92308L28.4916 11.2L11.8351 32L2.82832 43.2C-1.67509 48.7385 -0.688041 56.8615 4.98749 61.2308C7.45512 63.0154 10.2312 64 13.1306 64C16.0301 64 20.842 62.2769 23.4947 59.0769L28.615 52.8L41.7551 36.3692L34.7224 21.9692L59.4603 52.8L64.5806 59.0769C67.1716 62.2769 70.9964 64 74.9446 64C78.8928 64 80.6201 63.1385 83.0878 61.2308C88.7633 56.8615 89.627 48.7385 85.1236 43.2H85.0002Z" fill="white"/>
</svg>
